<?xml version="1.0" standalone="no"?>
<!DOCTYPE svg PUBLIC "-//W3C//DTD SVG 20010904//EN"
 "http://www.w3.org/TR/2001/REC-SVG-20010904/DTD/svg10.dtd">
<svg version="1.0" xmlns="http://www.w3.org/2000/svg"
 width="474.000000pt" height="365.000000pt" viewBox="0 0 474.000000 365.000000"
 preserveAspectRatio="xMidYMid meet">

<g transform="translate(0.000000,365.000000) scale(0.100000,-0.100000)"
fill="#000000" stroke="none">
<path d="M3362 3510 c0 -14 2 -19 5 -12 2 6 2 18 0 25 -3 6 -5 1 -5 -13z"/>
<path d="M3582 3508 c3 -16 1 -28 -3 -28 -5 0 -9 -4 -9 -10 0 -5 7 -7 15 -4
15 6 14 49 -1 63 -4 3 -4 -6 -2 -21z"/>
<path d="M3712 3500 c0 -19 2 -27 5 -17 2 9 2 25 0 35 -3 9 -5 1 -5 -18z"/>
<path d="M3801 3514 c0 -11 3 -14 6 -6 3 7 2 16 -1 19 -3 4 -6 -2 -5 -13z"/>
<path d="M4100 3526 c0 -2 7 -7 16 -10 8 -3 12 -2 9 4 -6 10 -25 14 -25 6z"/>
<path d="M4190 3517 c0 -10 9 -27 20 -39 26 -28 26 -18 0 24 -14 23 -20 27
-20 15z"/>
<path d="M4245 3520 c-3 -6 1 -7 9 -4 18 7 21 14 7 14 -6 0 -13 -4 -16 -10z"/>
<path d="M4283 3515 c-3 -9 -3 -19 1 -22 3 -4 6 1 6 10 0 8 6 18 13 20 9 4 9
6 -1 6 -7 1 -15 -6 -19 -14z"/>
<path d="M4376 3521 c-3 -4 1 -17 9 -27 8 -10 15 -14 15 -7 0 6 -5 15 -11 19
-8 4 -7 9 2 15 10 6 10 9 2 9 -6 0 -14 -4 -17 -9z"/>
<path d="M4420 3526 c0 -2 7 -7 16 -10 8 -3 12 -2 9 4 -6 10 -25 14 -25 6z"/>
<path d="M4467 3503 c-5 -26 10 -50 23 -36 3 3 0 8 -6 10 -6 2 -9 15 -6 28 2
14 2 25 -1 25 -2 0 -7 -12 -10 -27z"/>
<path d="M4502 3510 c0 -14 2 -19 5 -12 2 6 2 18 0 25 -3 6 -5 1 -5 -13z"/>
<path d="M4557 3505 c8 -39 10 -41 15 -11 3 14 2 23 -3 21 -4 -3 -10 1 -13 7
-3 7 -3 0 1 -17z"/>
<path d="M3443 3496 c1 -17 9 -31 17 -33 10 -3 11 -2 4 4 -7 4 -14 19 -17 33
-4 22 -5 21 -4 -4z"/>
<path d="M3610 3514 c0 -3 9 -17 19 -30 l20 -25 -1 31 c-1 21 -4 27 -9 18 -7
-10 -9 -10 -9 0 0 6 -4 12 -10 12 -5 0 -10 -3 -10 -6z"/>
<path d="M3760 3505 c0 -8 5 -15 10 -15 6 0 10 7 10 15 0 8 -4 15 -10 15 -5 0
-10 -7 -10 -15z"/>
<path d="M3980 3514 c0 -5 7 -18 15 -28 8 -11 15 -16 15 -10 0 5 -7 18 -15 28
-8 11 -15 16 -15 10z"/>
<path d="M3822 3490 c0 -14 2 -19 5 -12 2 6 2 18 0 25 -3 6 -5 1 -5 -13z"/>
<path d="M3930 3494 c0 -8 5 -12 10 -9 6 4 8 11 5 16 -9 14 -15 11 -15 -7z"/>
<path d="M4110 3497 c12 -16 12 -20 -1 -28 -9 -5 -10 -9 -2 -9 22 0 26 22 7
38 -17 16 -17 16 -4 -1z"/>
<path d="M4430 3497 c12 -16 12 -20 -1 -28 -9 -5 -10 -9 -2 -9 22 0 26 22 7
38 -17 16 -17 16 -4 -1z"/>
<path d="M3530 3489 c0 -5 5 -7 10 -4 6 3 10 8 10 11 0 2 -4 4 -10 4 -5 0 -10
-5 -10 -11z"/>
<path d="M3890 3489 c0 -5 5 -7 10 -4 6 3 10 8 10 11 0 2 -4 4 -10 4 -5 0 -10
-5 -10 -11z"/>
<path d="M4242 3480 c0 -14 2 -19 5 -12 2 6 2 18 0 25 -3 6 -5 1 -5 -13z"/>
<path d="M4330 3489 c0 -5 5 -7 10 -4 6 3 10 8 10 11 0 2 -4 4 -10 4 -5 0 -10
-5 -10 -11z"/>
<path d="M4287 3469 c7 -7 15 -10 18 -7 3 3 -2 9 -12 12 -14 6 -15 5 -6 -5z"/>
<path d="M2977 3400 c3 -11 7 -20 9 -20 2 0 4 9 4 20 0 11 -4 20 -9 20 -5 0
-7 -9 -4 -20z"/>
<path d="M4068 3385 c2 -19 6 -35 8 -35 2 0 4 16 4 35 0 19 -4 35 -8 35 -4 0
-6 -16 -4 -35z"/>
<path d="M4104 3406 c-3 -8 -4 -23 -2 -33 3 -11 6 -6 9 15 6 34 2 42 -7 18z"/>
<path d="M4200 3409 c0 -5 5 -7 10 -4 6 3 10 8 10 11 0 2 -4 4 -10 4 -5 0 -10
-5 -10 -11z"/>
<path d="M4287 3413 c-11 -10 -8 -43 3 -43 5 0 7 7 3 16 -3 9 0 20 8 25 8 5 9
9 3 9 -6 0 -14 -3 -17 -7z"/>
<path d="M4380 3416 c0 -2 7 -7 16 -10 8 -3 12 -2 9 4 -6 10 -25 14 -25 6z"/>
<path d="M4426 3405 c4 -8 8 -15 10 -15 2 0 4 7 4 15 0 8 -4 15 -10 15 -5 0
-7 -7 -4 -15z"/>
<path d="M4547 3413 c-4 -3 -7 -20 -7 -36 0 -39 11 -28 14 12 2 34 2 34 -7 24z"/>
<path d="M3011 3394 c0 -11 3 -14 6 -6 3 7 2 16 -1 19 -3 4 -6 -2 -5 -13z"/>
<path d="M3151 3394 c0 -11 3 -14 6 -6 3 7 2 16 -1 19 -3 4 -6 -2 -5 -13z"/>
<path d="M3435 3395 c-3 -8 -7 -22 -9 -29 -3 -9 0 -13 7 -10 7 2 14 16 15 29
2 28 -6 34 -13 10z"/>
<path d="M3542 3380 c0 -19 2 -27 5 -17 2 9 2 25 0 35 -3 9 -5 1 -5 -18z"/>
<path d="M3616 3395 c-3 -8 -1 -15 4 -15 6 0 10 7 10 15 0 8 -2 15 -4 15 -2 0
-6 -7 -10 -15z"/>
<path d="M3722 3380 c0 -19 2 -27 5 -17 2 9 2 25 0 35 -3 9 -5 1 -5 -18z"/>
<path d="M3778 3378 c2 -15 5 -28 7 -28 2 0 5 13 7 28 2 17 -1 29 -7 29 -6 0
-9 -12 -7 -29z"/>
<path d="M3862 3380 c0 -19 2 -27 5 -17 2 9 2 25 0 35 -3 9 -5 1 -5 -18z"/>
<path d="M3902 3380 c0 -19 2 -27 5 -17 2 9 2 25 0 35 -3 9 -5 1 -5 -18z"/>
<path d="M4466 3388 c-8 -33 -8 -35 9 -35 8 0 15 4 15 9 0 4 -4 8 -9 8 -5 0
-7 9 -4 20 3 11 3 20 0 20 -2 0 -7 -10 -11 -22z"/>
<path d="M4392 3378 c7 -15 15 -23 17 -17 2 6 -4 18 -13 27 -15 15 -15 15 -4
-10z"/>
<path d="M3290 3380 c0 -5 5 -10 11 -10 5 0 7 5 4 10 -3 6 -8 10 -11 10 -2 0
-4 -4 -4 -10z"/>
<path d="M3692 3370 c0 -14 2 -19 5 -12 2 6 2 18 0 25 -3 6 -5 1 -5 -13z"/>
<path d="M4262 3370 c0 -14 2 -19 5 -12 2 6 2 18 0 25 -3 6 -5 1 -5 -13z"/>
<path d="M3101 3364 c0 -11 3 -14 6 -6 3 7 2 16 -1 19 -3 4 -6 -2 -5 -13z"/>
<path d="M3171 3364 c0 -11 3 -14 6 -6 3 7 2 16 -1 19 -3 4 -6 -2 -5 -13z"/>
<path d="M3172 3268 c-2 -37 10 -50 24 -26 4 6 3 8 -4 4 -7 -4 -12 6 -15 26
-4 33 -4 33 -5 -4z"/>
<path d="M3262 3270 c0 -19 2 -27 5 -17 2 9 2 25 0 35 -3 9 -5 1 -5 -18z"/>
<path d="M3322 3270 c0 -19 2 -27 5 -17 2 9 2 25 0 35 -3 9 -5 1 -5 -18z"/>
<path d="M3466 3274 c-4 -14 -5 -29 -2 -31 3 -3 8 7 12 21 3 15 4 29 1 32 -2
3 -8 -7 -11 -22z"/>
<path d="M3502 3270 c1 -18 4 -26 8 -19 6 8 9 8 12 -2 2 -7 7 -9 10 -3 3 5 -2
19 -12 32 l-19 23 1 -31z"/>
<path d="M3552 3280 c0 -14 2 -19 5 -12 2 6 2 18 0 25 -3 6 -5 1 -5 -13z"/>
<path d="M3736 3278 c-9 -34 -8 -38 9 -38 12 0 14 7 9 28 -9 36 -10 37 -18 10z"/>
<path d="M3863 3268 c1 -18 9 -33 17 -35 13 -4 13 -3 0 6 -13 10 -13 12 0 21
12 7 12 10 1 10 -7 0 -11 6 -7 15 3 8 1 15 -4 15 -5 0 -9 -14 -7 -32z"/>
<path d="M3910 3288 c0 -9 5 -20 11 -23 6 -4 8 -14 4 -24 -4 -11 -3 -13 5 -5
8 8 6 19 -5 40 -9 18 -15 23 -15 12z"/>
<path d="M4022 3280 c0 -14 2 -19 5 -12 2 6 2 18 0 25 -3 6 -5 1 -5 -13z"/>
<path d="M4364 3271 c0 -21 7 -36 16 -38 10 -3 11 -2 3 4 -6 4 -13 22 -16 38
-4 27 -5 27 -3 -4z"/>
<path d="M4430 3286 c0 -8 -4 -16 -9 -18 -5 -1 -3 -9 5 -16 12 -11 14 -8 14
18 0 16 -2 30 -5 30 -3 0 -5 -6 -5 -14z"/>
<path d="M3350 3286 c0 -2 8 -10 18 -17 15 -13 16 -12 3 4 -13 16 -21 21 -21
13z"/>
<path d="M3641 3268 c-1 -31 15 -46 32 -29 9 9 8 11 -5 6 -13 -5 -18 0 -21 22
l-4 28 -2 -27z"/>
<path d="M3771 3274 c0 -11 3 -14 6 -6 3 7 2 16 -1 19 -3 4 -6 -2 -5 -13z"/>
<path d="M3834 3272 c-9 -5 -8 -11 2 -20 12 -11 14 -9 14 8 0 22 0 23 -16 12z"/>
<path d="M4320 3276 c0 -2 8 -10 18 -17 15 -13 16 -12 3 4 -13 16 -21 21 -21
13z"/>
<path d="M3280 3255 c0 -8 4 -15 10 -15 5 0 7 7 4 15 -4 8 -8 15 -10 15 -2 0
-4 -7 -4 -15z"/>
<path d="M4188 3263 c7 -3 16 -2 19 1 4 3 -2 6 -13 5 -11 0 -14 -3 -6 -6z"/>
<path d="M4225 3259 c-4 -6 -5 -12 -2 -15 2 -3 7 2 10 11 7 17 1 20 -8 4z"/>
<path d="M3570 3251 c0 -7 -4 -9 -10 -6 -5 3 -10 1 -10 -4 0 -6 4 -11 9 -11
13 0 25 20 17 27 -3 4 -6 1 -6 -6z"/>
<path d="M3046 3238 c3 -5 10 -6 15 -3 13 9 11 12 -6 12 -8 0 -12 -4 -9 -9z"/>
<path d="M3777 3239 c7 -7 15 -10 18 -7 3 3 -2 9 -12 12 -14 6 -15 5 -6 -5z"/>
<path d="M4006 3238 c3 -5 10 -6 15 -3 13 9 11 12 -6 12 -8 0 -12 -4 -9 -9z"/>
<path d="M4510 3240 c-9 -6 -10 -10 -3 -10 6 0 15 5 18 10 8 12 4 12 -15 0z"/>
<path d="M2122 3210 c-46 -22 -60 -33 -56 -44 3 -9 12 -16 20 -16 18 0 45 -54
49 -96 5 -54 12 -56 76 -24 63 32 66 37 46 64 -13 17 -52 13 -41 -5 9 -14 -26
-23 -39 -10 -9 10 -8 15 6 25 22 17 12 49 -13 41 -9 -3 -23 1 -29 9 -10 12 -8
17 8 25 12 7 22 7 26 1 7 -12 35 -1 35 14 0 6 -6 18 -13 27 -11 15 -18 14 -75
-11z m28 -105 c0 -8 -2 -15 -4 -15 -2 0 -6 7 -10 15 -3 8 -1 15 4 15 6 0 10
-7 10 -15z"/>
<path d="M3916 3182 c-3 -5 1 -9 9 -9 8 0 12 4 9 9 -3 4 -7 8 -9 8 -2 0 -6 -4
-9 -8z"/>
<path d="M4005 3179 c-4 -6 -4 -13 -1 -16 3 -4 6 -1 6 6 0 7 5 9 12 5 7 -4 8
-3 4 4 -9 15 -13 15 -21 1z"/>
<path d="M4075 3179 c-4 -6 -5 -12 -2 -15 2 -3 7 2 10 11 7 17 1 20 -8 4z"/>
<path d="M4387 3183 c-4 -3 -7 -20 -6 -37 0 -17 3 -25 6 -18 2 6 9 10 14 6 5
-3 9 0 9 5 0 6 -4 11 -10 11 -5 0 -10 7 -10 16 0 9 5 12 12 8 7 -4 8 -3 4 4
-8 14 -10 14 -19 5z"/>
<path d="M4477 3183 c-10 -9 -9 -61 1 -67 4 -2 6 11 4 31 -4 27 -1 34 8 28 9
-5 11 -4 6 3 -8 14 -10 14 -19 5z"/>
<path d="M3050 3151 c0 -17 4 -32 8 -35 4 -2 6 11 4 30 -5 42 -12 45 -12 5z"/>
<path d="M3122 3160 c0 -14 2 -19 5 -12 2 6 2 18 0 25 -3 6 -5 1 -5 -13z"/>
<path d="M3170 3168 c0 -9 -6 -19 -12 -21 -10 -4 -10 -6 0 -6 14 -1 28 26 18
36 -3 4 -6 -1 -6 -9z"/>
<path d="M3280 3171 c0 -5 5 -13 10 -16 6 -3 10 -2 10 4 0 5 -4 13 -10 16 -5
3 -10 2 -10 -4z"/>
<path d="M3490 3169 c0 -8 7 -23 15 -33 11 -14 15 -16 15 -5 0 8 -7 23 -15 33
-11 14 -15 16 -15 5z"/>
<path d="M3541 3167 c-1 -22 30 -20 37 3 4 13 3 13 -10 2 -13 -10 -17 -10 -21
0 -3 8 -6 6 -6 -5z"/>
<path d="M3641 3164 c0 -11 3 -14 6 -6 3 7 2 16 -1 19 -3 4 -6 -2 -5 -13z"/>
<path d="M4168 3148 c2 -15 5 -28 7 -28 2 0 5 13 7 28 2 17 -1 29 -7 29 -6 0
-9 -12 -7 -29z"/>
<path d="M4520 3166 c0 -9 5 -16 10 -16 6 0 10 4 10 9 0 6 -4 13 -10 16 -5 3
-10 -1 -10 -9z"/>
<path d="M4558 3148 c2 -15 5 -28 7 -28 2 0 5 13 7 28 2 17 -1 29 -7 29 -6 0
-9 -12 -7 -29z"/>
<path d="M1998 3154 c-27 -14 -29 -44 -3 -44 18 0 28 -32 13 -42 -20 -12 -45
-9 -51 6 -3 8 -1 17 6 19 9 3 9 8 -1 20 -12 15 -16 15 -47 0 -29 -14 -32 -19
-24 -35 6 -10 14 -16 18 -14 13 8 61 -97 50 -110 -6 -7 -4 -16 5 -24 12 -9 21
-8 45 6 28 17 32 44 6 44 -7 0 -16 7 -19 16 -7 19 -8 17 21 33 18 9 24 8 31
-5 5 -9 7 -25 5 -34 -7 -27 8 -30 46 -10 l35 17 -26 24 c-32 30 -71 106 -58
114 12 7 1 35 -14 35 -6 -1 -23 -7 -38 -16z"/>
<path d="M3346 3155 c-3 -9 -6 -22 -5 -28 0 -7 5 -1 10 12 5 13 8 26 5 28 -2
2 -6 -3 -10 -12z"/>
<path d="M4435 3160 c3 -5 8 -10 11 -10 2 0 4 5 4 10 0 6 -5 10 -11 10 -5 0
-7 -4 -4 -10z"/>
<path d="M3590 3150 c0 -5 5 -10 11 -10 5 0 7 5 4 10 -3 6 -8 10 -11 10 -2 0
-4 -4 -4 -10z"/>
<path d="M3920 3148 c14 -16 13 -31 -2 -22 -7 5 -8 3 -3 -5 5 -9 10 -10 18 -2
8 8 6 15 -6 26 -9 8 -12 10 -7 3z"/>
<path d="M4340 3150 c0 -5 5 -10 11 -10 5 0 7 5 4 10 -3 6 -8 10 -11 10 -2 0
-4 -4 -4 -10z"/>
<path d="M3300 3141 c0 -6 5 -13 10 -16 6 -3 10 1 10 9 0 9 -4 16 -10 16 -5 0
-10 -4 -10 -9z"/>
<path d="M3401 3133 c0 -11 3 -13 6 -5 2 6 9 10 14 6 5 -3 9 0 9 5 0 6 -7 11
-15 11 -8 0 -15 -8 -14 -17z"/>
<path d="M3661 3134 c0 -11 3 -14 6 -6 3 7 2 16 -1 19 -3 4 -6 -2 -5 -13z"/>
<path d="M3820 3136 c0 -8 4 -17 8 -20 4 -2 8 4 8 15 0 10 -4 19 -8 19 -4 0
-8 -6 -8 -14z"/>
<path d="M4001 3134 c0 -11 3 -14 6 -6 3 7 2 16 -1 19 -3 4 -6 -2 -5 -13z"/>
<path d="M4075 3139 c-4 -6 -4 -13 -1 -16 3 -4 6 -1 6 6 0 7 5 9 10 6 6 -3 10
-1 10 4 0 14 -17 14 -25 0z"/>
<path d="M4300 3135 c0 -8 5 -15 10 -15 6 0 10 7 10 15 0 8 -4 15 -10 15 -5 0
-10 -7 -10 -15z"/>
<path d="M3597 3119 c7 -7 15 -10 18 -7 3 3 -2 9 -12 12 -14 6 -15 5 -6 -5z"/>
<path d="M1798 3054 c-38 -19 -68 -38 -68 -42 0 -5 7 -17 15 -28 14 -19 15
-18 34 6 l20 25 22 -50 c13 -28 22 -62 20 -77 -3 -32 4 -34 47 -12 36 17 41
34 14 41 -10 2 -28 25 -40 49 -25 51 -27 66 -9 63 6 -1 20 -1 30 0 16 1 16 3
2 31 -9 17 -17 30 -18 30 -1 -1 -32 -17 -69 -36z"/>
<path d="M3364 3056 c-8 -22 -1 -49 14 -52 7 -1 8 0 2 3 -14 7 -13 50 3 56 9
4 9 6 -1 6 -7 1 -15 -5 -18 -13z"/>
<path d="M3417 3056 c-4 -10 -5 -21 -2 -24 9 -9 17 6 13 25 -3 17 -4 17 -11
-1z"/>
<path d="M4051 3035 c1 -40 1 -40 10 -10 5 18 5 33 -1 39 -7 7 -10 -4 -9 -29z"/>
<path d="M4150 3064 c0 -7 7 -25 15 -40 8 -16 15 -24 15 -18 0 7 -7 25 -15 40
-8 16 -15 24 -15 18z"/>
<path d="M4245 3060 c-3 -6 1 -7 9 -4 18 7 21 14 7 14 -6 0 -13 -4 -16 -10z"/>
<path d="M4440 3068 c0 -4 9 -22 20 -40 11 -18 20 -26 20 -18 0 15 -39 72 -40
58z"/>
<path d="M3630 3036 c0 -14 4 -27 8 -30 5 -3 6 8 4 25 -5 35 -12 38 -12 5z"/>
<path d="M3872 3044 c-7 -8 -8 -14 -3 -14 10 0 25 19 20 25 -2 1 -10 -3 -17
-11z"/>
<path d="M3970 3035 c-1 -26 -3 -27 -10 -10 -8 19 -9 19 -9 -2 -1 -13 4 -23 9
-23 14 0 23 25 17 47 -3 11 -5 7 -7 -12z"/>
<path d="M4030 3052 c0 -7 -7 -12 -15 -12 -9 0 -15 -9 -15 -22 0 -19 2 -20 10
-8 9 13 10 13 11 0 0 -8 5 -2 10 14 4 17 6 32 4 35 -3 2 -5 -1 -5 -7z"/>
<path d="M4076 3044 c-8 -21 -8 -34 2 -34 4 0 8 11 8 25 2 29 -1 32 -10 9z"/>
<path d="M4493 3031 c1 -14 9 -26 17 -28 10 -3 11 -2 4 4 -7 4 -14 17 -17 28
-5 16 -5 15 -4 -4z"/>
<path d="M3760 3026 c0 -8 4 -17 9 -20 5 -4 7 3 4 14 -6 23 -13 26 -13 6z"/>
<path d="M4243 3026 c1 -11 9 -21 17 -23 10 -3 11 -2 4 4 -6 4 -14 15 -17 23
-5 11 -6 9 -4 -4z"/>
<path d="M4540 3029 c0 -5 5 -7 10 -4 6 3 10 8 10 11 0 2 -4 4 -10 4 -5 0 -10
-5 -10 -11z"/>
<path d="M3292 3014 c-7 -8 -8 -14 -3 -14 10 0 25 19 20 25 -2 1 -10 -3 -17
-11z"/>
<path d="M3451 3023 c-1 -17 16 -25 25 -12 4 7 3 9 -4 5 -5 -3 -13 0 -15 6 -4
9 -6 10 -6 1z"/>
<path d="M3826 3013 c-6 -14 -5 -15 5 -6 7 7 10 15 7 18 -3 3 -9 -2 -12 -12z"/>
<path d="M4350 3021 c0 -10 19 -25 25 -20 1 2 -3 10 -11 17 -8 7 -14 8 -14 3z"/>
<path d="M3510 3010 c-9 -6 -10 -10 -3 -10 6 0 15 5 18 10 8 12 4 12 -15 0z"/>
<path d="M3004 2946 c-3 -8 -4 -23 -1 -33 3 -12 5 -9 6 9 0 14 7 29 14 31 9 4
9 6 -1 6 -7 1 -15 -5 -18 -13z"/>
<path d="M3385 2950 c-3 -5 1 -20 9 -32 9 -12 16 -17 16 -11 0 7 -5 15 -11 18
-6 4 -8 13 -5 21 6 16 0 19 -9 4z"/>
<path d="M3424 2949 c-3 -6 2 -18 12 -27 17 -16 17 -16 5 0 -7 9 -10 22 -6 28
3 5 4 10 1 10 -3 0 -8 -5 -12 -11z"/>
<path d="M3773 2925 c0 -22 2 -30 4 -17 2 12 2 30 0 40 -3 9 -5 -1 -4 -23z"/>
<path d="M3794 2949 c-3 -6 4 -21 17 -33 l23 -21 -19 23 c-16 20 -17 25 -5 32
9 6 10 10 3 10 -6 0 -15 -5 -19 -11z"/>
<path d="M4025 2950 c3 -5 8 -10 11 -10 2 0 4 5 4 10 0 6 -5 10 -11 10 -5 0
-7 -4 -4 -10z"/>
<path d="M4288 2925 c2 -19 5 -35 7 -35 2 0 5 16 7 35 2 21 0 35 -7 35 -7 0
-9 -14 -7 -35z"/>
<path d="M4322 2930 c0 -19 2 -27 5 -17 2 9 2 25 0 35 -3 9 -5 1 -5 -18z"/>
<path d="M4410 2925 c0 -19 2 -35 4 -35 2 0 6 16 8 35 2 19 0 35 -4 35 -4 0
-8 -16 -8 -35z"/>
<path d="M1528 2927 c-48 -21 -61 -43 -33 -54 23 -8 65 -96 59 -120 -3 -12 -2
-23 3 -26 10 -7 73 19 73 30 0 14 -17 35 -26 33 -5 0 -10 6 -12 14 -2 9 1 16
7 16 20 0 51 40 51 64 0 25 -42 67 -64 65 -6 -1 -32 -10 -58 -22z m80 -42 c4
-18 -13 -35 -34 -35 -21 0 -26 34 -7 47 21 16 37 12 41 -12z"/>
<path d="M3141 2940 c0 -8 4 -24 9 -35 5 -13 9 -14 9 -5 0 8 -4 24 -9 35 -5
13 -9 14 -9 5z"/>
<path d="M3180 2937 c0 -9 5 -17 10 -17 6 0 10 -8 11 -17 0 -11 3 -13 6 -6 2
7 -3 23 -11 35 -13 18 -16 19 -16 5z"/>
<path d="M3291 2932 c-1 -13 3 -21 8 -17 5 3 12 -3 14 -12 3 -11 5 -7 6 10 0
16 -3 26 -8 23 -5 -4 -12 0 -14 6 -3 7 -6 3 -6 -10z"/>
<path d="M3636 2924 c-4 -14 -5 -28 -3 -31 3 -2 8 8 11 23 4 14 5 28 3 31 -3
2 -8 -8 -11 -23z"/>
<path d="M3671 2919 c1 -19 3 -26 6 -16 5 18 5 18 19 0 11 -15 13 -16 14 -2 0
9 -9 24 -20 34 -20 18 -20 17 -19 -16z"/>
<path d="M4062 2920 c0 -19 2 -27 5 -17 2 9 2 25 0 35 -3 9 -5 1 -5 -18z"/>
<path d="M4116 2935 c-3 -8 -1 -15 4 -15 6 0 10 7 10 15 0 8 -2 15 -4 15 -2 0
-6 -7 -10 -15z"/>
<path d="M4459 2933 c27 -47 31 -49 30 -13 0 29 -2 31 -9 15 -7 -17 -9 -17 -9
-2 -1 9 -6 17 -11 17 -7 0 -7 -6 -1 -17z"/>
<path d="M3540 2936 c0 -2 8 -10 18 -17 15 -13 16 -12 3 4 -13 16 -21 21 -21
13z"/>
<path d="M4392 2920 c0 -14 2 -19 5 -12 2 6 2 18 0 25 -3 6 -5 1 -5 -13z"/>
<path d="M4562 2918 c7 -15 15 -23 17 -17 2 6 -4 18 -13 27 -15 15 -15 15 -4
-10z"/>
<path d="M3092 2910 c0 -14 2 -19 5 -12 2 6 2 18 0 25 -3 6 -5 1 -5 -13z"/>
<path d="M4110 2906 c0 -2 7 -6 15 -10 8 -3 15 -1 15 4 0 6 -7 10 -15 10 -8 0
-15 -2 -15 -4z"/>
<path d="M1394 2857 c-36 -19 -59 -37 -57 -44 3 -7 10 -13 17 -13 19 0 64 -98
58 -127 l-5 -26 -19 24 -19 24 -16 -22 c-18 -27 -38 -30 -47 -7 -9 22 -8 24
10 24 9 0 14 7 12 18 -2 11 -13 17 -28 17 -15 0 -26 6 -28 18 -3 16 1 19 42
21 25 1 30 17 13 40 -12 17 -16 16 -70 -10 -57 -28 -72 -52 -39 -60 16 -5 56
-82 58 -114 1 -8 2 -21 3 -27 1 -11 233 95 254 116 11 11 -9 51 -24 51 -6 0
-13 -9 -16 -19 -6 -24 -40 -34 -48 -14 -3 9 2 21 12 28 14 10 15 16 5 28 -7 8
-21 13 -32 10 -24 -6 -27 18 -5 37 10 9 15 9 15 1 0 -14 27 -15 35 -1 3 5 0
20 -7 34 l-13 24 -61 -31z"/>
<path d="M3534 2839 c-4 -8 -3 -9 4 -5 8 5 12 -3 12 -24 0 -21 -4 -29 -12 -24
-7 4 -8 3 -4 -5 12 -18 26 -2 26 29 0 31 -14 47 -26 29z"/>
<path d="M2970 2825 c0 -8 4 -15 10 -15 5 0 7 7 4 15 -4 8 -8 15 -10 15 -2 0
-4 -7 -4 -15z"/>
<path d="M2990 2830 c0 -5 5 -10 10 -10 6 0 10 5 10 10 0 6 -4 10 -10 10 -5 0
-10 -4 -10 -10z"/>
<path d="M3251 2824 c0 -11 3 -14 6 -6 3 7 2 16 -1 19 -3 4 -6 -2 -5 -13z"/>
<path d="M3341 2815 c-1 -24 3 -31 19 -31 12 0 20 7 20 18 0 11 -5 15 -14 12
-8 -3 -16 2 -19 13 -3 11 -5 6 -6 -12z"/>
<path d="M3452 2810 c1 -16 5 -30 10 -30 4 0 8 14 8 30 0 17 -4 30 -9 30 -5 0
-9 -13 -9 -30z"/>
<path d="M3632 2820 c0 -14 2 -19 5 -12 2 6 2 18 0 25 -3 6 -5 1 -5 -13z"/>
<path d="M3720 2811 c0 -17 4 -32 8 -35 4 -2 6 11 4 30 -5 42 -12 45 -12 5z"/>
<path d="M3861 2824 c0 -11 3 -14 6 -6 3 7 2 16 -1 19 -3 4 -6 -2 -5 -13z"/>
<path d="M3890 2828 c0 -10 5 -18 10 -18 6 0 10 -7 10 -15 0 -8 5 -15 10 -15
15 0 12 12 -10 40 -16 20 -20 22 -20 8z"/>
<path d="M3941 2824 c0 -11 3 -14 6 -6 3 7 2 16 -1 19 -3 4 -6 -2 -5 -13z"/>
<path d="M3982 2810 c0 -19 2 -27 5 -17 2 9 2 25 0 35 -3 9 -5 1 -5 -18z"/>
<path d="M4000 2832 c0 -7 9 -22 20 -34 26 -28 26 -11 0 22 -11 14 -20 19 -20
12z"/>
<path d="M4054 2811 c0 -21 7 -36 16 -38 10 -3 11 -2 3 4 -6 4 -13 22 -16 38
-4 27 -5 27 -3 -4z"/>
<path d="M4140 2833 c0 -7 5 -15 10 -18 6 -3 10 -13 10 -21 0 -9 -5 -12 -12
-8 -7 4 -8 3 -4 -5 9 -13 26 -5 26 12 -1 16 -30 54 -30 40z"/>
<path d="M4230 2811 c0 -17 4 -32 8 -35 4 -2 6 11 4 30 -5 42 -12 45 -12 5z"/>
<path d="M4461 2824 c0 -11 3 -14 6 -6 3 7 2 16 -1 19 -3 4 -6 -2 -5 -13z"/>
<path d="M4562 2810 c0 -19 2 -27 5 -17 2 9 2 25 0 35 -3 9 -5 1 -5 -18z"/>
<path d="M3200 2812 c0 -13 4 -21 9 -18 5 4 12 0 14 -6 3 -7 6 -8 6 -2 1 5 -6
19 -14 30 -14 18 -14 18 -15 -4z"/>
<path d="M4105 2810 c10 -11 20 -20 23 -20 3 0 -3 9 -13 20 -10 11 -20 20 -23
20 -3 0 3 -9 13 -20z"/>
<path d="M4302 2810 c0 -14 2 -19 5 -12 2 6 2 18 0 25 -3 6 -5 1 -5 -13z"/>
<path d="M4373 2814 c22 -26 22 -38 0 -29 -15 5 -16 4 -5 -6 9 -10 15 -10 24
-1 10 10 7 17 -12 35 -21 19 -22 19 -7 1z"/>
<path d="M4532 2810 c0 -14 2 -19 5 -12 2 6 2 18 0 25 -3 6 -5 1 -5 -13z"/>
<path d="M3070 2816 c0 -2 8 -10 18 -17 15 -13 16 -12 3 4 -13 16 -21 21 -21
13z"/>
<path d="M4320 2796 c0 -31 6 -34 13 -6 3 11 1 23 -4 26 -5 3 -9 -6 -9 -20z"/>
<path d="M3001 2794 c0 -11 3 -14 6 -6 3 7 2 16 -1 19 -3 4 -6 -2 -5 -13z"/>
<path d="M3271 2794 c0 -11 3 -14 6 -6 3 7 2 16 -1 19 -3 4 -6 -2 -5 -13z"/>
<path d="M3570 2796 c0 -8 4 -17 9 -20 5 -4 7 3 4 14 -6 23 -13 26 -13 6z"/>
<path d="M4481 2794 c0 -11 3 -14 6 -6 3 7 2 16 -1 19 -3 4 -6 -2 -5 -13z"/>
<path d="M3026 2778 c3 -5 10 -6 15 -3 13 9 11 12 -6 12 -8 0 -12 -4 -9 -9z"/>
<path d="M3500 2780 c-9 -6 -10 -10 -3 -10 6 0 15 5 18 10 8 12 4 12 -15 0z"/>
<path d="M4097 2779 c7 -7 15 -10 18 -7 3 3 -2 9 -12 12 -14 6 -15 5 -6 -5z"/>
<path d="M750 2714 c0 -159 130 -597 254 -859 91 -190 129 -195 103 -15 -17
119 -76 350 -89 350 -4 0 -8 -7 -8 -15 0 -23 -57 -82 -69 -70 -5 6 -27 66 -50
134 l-40 123 45 -5 c25 -2 54 -13 64 -22 11 -10 20 -15 20 -12 0 17 -87 232
-126 313 -43 88 -75 134 -94 134 -6 0 -10 -25 -10 -56z"/>
<path d="M1133 2734 c-27 -14 -31 -19 -23 -39 9 -24 3 -65 -10 -65 -13 0 -21
33 -10 40 7 5 6 11 -5 20 -20 17 -79 -5 -71 -27 4 -8 6 -17 6 -19 0 -2 7 -4
15 -4 16 0 59 -85 52 -104 -3 -7 -1 -19 3 -26 7 -11 14 -11 39 0 32 13 44 50
16 50 -8 0 -15 9 -15 20 0 11 6 20 13 20 19 0 40 -17 34 -27 -3 -5 -2 -15 2
-22 13 -20 80 16 74 40 -3 10 -9 16 -14 13 -5 -3 -25 5 -45 17 -32 19 -35 25
-30 52 4 17 11 34 16 37 11 7 3 40 -9 40 -3 0 -20 -8 -38 -16z"/>
<path d="M3251 2695 c0 -31 2 -36 9 -20 5 12 9 14 9 6 1 -8 3 -12 6 -9 3 3 -1
18 -10 34 l-15 29 1 -40z"/>
<path d="M3421 2700 c-1 -34 -1 -34 15 -12 9 13 13 26 10 29 -3 4 -6 0 -7 -8
0 -8 -4 -6 -9 6 -7 16 -9 14 -9 -15z"/>
<path d="M3520 2719 c11 -8 12 -12 3 -16 -7 -2 -13 -10 -13 -16 0 -6 7 -4 16
5 17 17 12 38 -9 38 -7 0 -6 -4 3 -11z"/>
<path d="M3600 2710 c0 -11 4 -20 9 -20 5 0 7 9 4 20 -3 11 -7 20 -9 20 -2 0
-4 -9 -4 -20z"/>
<path d="M3662 2710 c0 -14 2 -19 5 -12 2 6 2 18 0 25 -3 6 -5 1 -5 -13z"/>
<path d="M3980 2719 c0 -5 5 -7 10 -4 6 3 10 1 10 -4 0 -6 -4 -11 -10 -11 -5
0 -10 -8 -9 -17 0 -11 3 -13 6 -5 2 6 9 10 14 6 5 -3 9 6 9 20 0 16 -6 26 -15
26 -8 0 -15 -5 -15 -11z"/>
<path d="M4027 2723 c-4 -3 1 -15 10 -25 15 -17 15 -20 3 -28 -9 -6 -10 -10
-3 -10 21 0 26 21 9 39 -9 10 -13 21 -9 24 3 4 4 7 1 7 -2 0 -8 -3 -11 -7z"/>
<path d="M4170 2718 c0 -7 -3 -23 -6 -36 -5 -18 -3 -21 12 -15 10 4 13 8 7 10
-5 2 -8 15 -5 28 2 14 2 25 -2 25 -3 0 -6 -6 -6 -12z"/>
<path d="M4292 2700 c0 -19 2 -27 5 -17 2 9 2 25 0 35 -3 9 -5 1 -5 -18z"/>
<path d="M4450 2697 c0 -20 4 -37 9 -37 4 0 7 14 5 32 -6 45 -14 48 -14 5z"/>
<path d="M4501 2714 c0 -11 3 -14 6 -6 3 7 2 16 -1 19 -3 4 -6 -2 -5 -13z"/>
<path d="M3339 2688 c4 -28 6 -29 9 -9 2 13 0 27 -5 32 -6 6 -7 -3 -4 -23z"/>
<path d="M3903 2704 c-7 -7 -13 -19 -13 -26 0 -7 7 -2 16 10 18 26 16 37 -3
16z"/>
<path d="M4074 2691 c1 -24 26 -44 26 -21 0 6 -4 9 -9 5 -5 -3 -12 5 -14 17
-4 21 -4 21 -3 -1z"/>
<path d="M4119 2703 c27 -47 31 -49 31 -13 0 26 -3 31 -10 20 -6 -10 -10 -11
-10 -2 0 6 -5 12 -10 12 -7 0 -7 -6 -1 -17z"/>
<path d="M4202 2690 c0 -19 2 -27 5 -17 2 9 2 25 0 35 -3 9 -5 1 -5 -18z"/>
<path d="M4348 2695 c2 -14 6 -25 8 -25 2 0 4 11 4 25 0 14 -4 25 -9 25 -4 0
-6 -11 -3 -25z"/>
<path d="M4383 2696 c1 -17 9 -31 17 -33 10 -3 11 -2 4 4 -7 4 -14 19 -17 33
-4 22 -5 21 -4 -4z"/>
<path d="M4432 2695 c0 -16 2 -22 5 -12 2 9 2 23 0 30 -3 6 -5 -1 -5 -18z"/>
<path d="M3681 2684 c0 -11 3 -14 6 -6 3 7 2 16 -1 19 -3 4 -6 -2 -5 -13z"/>
<path d="M4522 2680 c0 -14 2 -19 5 -12 2 6 2 18 0 25 -3 6 -5 1 -5 -13z"/>
<path d="M3598 2673 c7 -3 16 -2 19 1 4 3 -2 6 -13 5 -11 0 -14 -3 -6 -6z"/>
<path d="M2393 2623 c-17 -6 -16 -18 2 -36 8 -8 17 -30 20 -48 l5 -34 -49 54
c-44 48 -51 53 -79 46 -32 -7 -34 -24 -6 -52 15 -16 27 -94 16 -105 -6 -6 -8
-18 -5 -28 4 -15 10 -17 34 -10 16 5 33 9 37 10 8 2 4 23 -7 30 -5 3 -11 23
-15 45 l-8 39 47 -52 c48 -53 85 -68 85 -34 0 10 -5 44 -11 76 -9 40 -9 60 -1
68 26 26 -21 49 -65 31z"/>
<path d="M3471 2594 c0 -11 3 -14 6 -6 3 7 2 16 -1 19 -3 4 -6 -2 -5 -13z"/>
<path d="M3556 2595 c-3 -8 -1 -15 4 -15 6 0 10 7 10 15 0 8 -2 15 -4 15 -2 0
-6 -7 -10 -15z"/>
<path d="M3791 2597 c0 -10 6 -25 14 -33 13 -14 15 -14 15 0 0 9 -4 16 -9 16
-5 0 -12 8 -14 18 -4 16 -5 16 -6 -1z"/>
<path d="M3992 2580 c0 -19 2 -27 5 -17 2 9 2 25 0 35 -3 9 -5 1 -5 -18z"/>
<path d="M4057 2602 c-3 -4 3 -18 14 -31 10 -13 19 -19 19 -13 0 5 -7 15 -15
22 -13 11 -13 15 -3 21 9 6 9 9 1 9 -6 0 -14 -3 -16 -8z"/>
<path d="M4158 2575 c2 -19 6 -35 8 -35 2 0 4 16 4 35 0 19 -4 35 -8 35 -4 0
-6 -16 -4 -35z"/>
<path d="M4330 2578 c0 -23 3 -29 9 -19 8 12 4 51 -5 51 -2 0 -4 -15 -4 -32z"/>
<path d="M4429 2603 c0 -5 -2 -18 -5 -30 -3 -17 1 -23 14 -22 9 0 12 3 6 5 -6
3 -9 16 -6 29 2 14 2 25 -2 25 -3 0 -6 -3 -7 -7z"/>
<path d="M4547 2603 c-4 -3 1 -15 10 -25 15 -17 15 -20 3 -28 -9 -6 -10 -10
-3 -10 21 0 25 21 8 40 -13 14 -13 19 -3 23 7 3 8 6 2 6 -6 1 -14 -2 -17 -6z"/>
<path d="M2158 2587 c-36 -8 -48 -15 -48 -29 0 -10 6 -18 14 -18 17 0 29 -82
20 -130 l-7 -33 34 7 c19 4 51 10 72 13 36 6 43 15 31 47 -8 20 -44 21 -44 1
0 -8 -9 -15 -20 -15 -13 0 -20 7 -20 20 0 13 7 20 20 20 22 0 23 1 14 24 -3 9
-14 16 -24 16 -10 0 -20 9 -23 21 -5 20 -3 21 40 14 40 -6 45 -5 39 10 -3 9
-6 23 -6 31 0 16 -22 16 -92 1z"/>
<path d="M3411 2584 c0 -11 3 -14 6 -6 3 7 2 16 -1 19 -3 4 -6 -2 -5 -13z"/>
<path d="M3370 2579 c0 -5 5 -7 10 -4 6 3 10 8 10 11 0 2 -4 4 -10 4 -5 0 -10
-5 -10 -11z"/>
<path d="M3630 2586 c0 -2 8 -10 18 -17 15 -13 16 -12 3 4 -13 16 -21 21 -21
13z"/>
<path d="M4503 2575 c0 -8 4 -12 9 -9 5 3 6 10 3 15 -9 13 -12 11 -12 -6z"/>
<path d="M4010 2569 c0 -5 5 -7 10 -4 6 3 10 8 10 11 0 2 -4 4 -10 4 -5 0 -10
-5 -10 -11z"/>
<path d="M4190 2563 c0 -10 4 -14 8 -8 4 6 11 13 16 18 5 4 2 7 -7 7 -10 0
-17 -8 -17 -17z"/>
<path d="M2010 2558 c-56 -12 -66 -21 -45 -41 20 -20 39 -118 25 -127 -19 -12
1 -42 24 -36 11 3 40 8 64 12 36 6 42 10 42 31 0 30 -24 40 -45 19 -21 -21
-32 -20 -38 3 -3 13 1 21 14 24 29 8 24 37 -6 37 -31 0 -35 35 -5 43 11 3 20
1 20 -4 0 -5 9 -9 20 -9 20 0 25 15 14 44 -7 18 -19 18 -84 4z"/>
<path d="M3927 2549 c7 -7 15 -10 18 -7 3 3 -2 9 -12 12 -14 6 -15 5 -6 -5z"/>
<path d="M3888 2543 c7 -3 16 -2 19 1 4 3 -2 6 -13 5 -11 0 -14 -3 -6 -6z"/>
<path d="M1875 2535 c-5 -2 -31 -6 -57 -10 -44 -6 -46 -7 -39 -33 8 -29 41
-44 41 -18 0 28 18 17 24 -14 3 -16 9 -43 12 -60 3 -18 1 -30 -5 -30 -14 0
-14 -27 -1 -35 6 -4 24 -4 40 0 32 7 40 30 16 49 -18 14 -33 116 -17 116 6 0
11 -4 11 -9 0 -6 9 -9 20 -8 21 1 25 13 14 41 -6 15 -34 20 -59 11z"/>
<path d="M1713 2508 c-35 -9 -42 -28 -18 -48 8 -7 15 -25 15 -41 0 -28 0 -28
-46 21 -31 33 -55 50 -71 50 -31 0 -42 -29 -18 -46 14 -10 18 -28 19 -84 1
-65 3 -70 23 -70 47 0 71 28 40 47 -8 4 -17 24 -20 43 l-7 35 50 -52 c45 -49
68 -62 82 -48 3 3 -1 38 -8 77 -10 51 -11 75 -3 84 19 24 -2 42 -38 32z"/>
<path d="M3210 2480 c-2 -18 -4 -20 -7 -7 -2 9 -9 17 -14 17 -6 0 -2 -14 8
-31 16 -27 18 -28 21 -10 2 12 1 29 -1 39 -3 12 -5 10 -7 -8z"/>
<path d="M3330 2489 c0 -5 5 -7 10 -4 6 3 10 8 10 11 0 2 -4 4 -10 4 -5 0 -10
-5 -10 -11z"/>
<path d="M3370 2488 c0 -9 5 -20 10 -23 13 -8 13 5 0 25 -8 13 -10 13 -10 -2z"/>
<path d="M3536 2492 c-3 -5 1 -9 9 -9 8 0 12 4 9 9 -3 4 -7 8 -9 8 -2 0 -6 -4
-9 -8z"/>
<path d="M3778 2470 c2 -16 5 -30 7 -30 2 0 5 14 7 30 3 19 0 30 -7 30 -7 0
-10 -11 -7 -30z"/>
<path d="M3150 2476 c0 -9 5 -16 10 -16 6 0 10 4 10 9 0 6 -4 13 -10 16 -5 3
-10 -1 -10 -9z"/>
<path d="M3396 2468 c-3 -13 -1 -27 4 -32 7 -7 10 1 10 22 0 37 -5 41 -14 10z"/>
<path d="M3436 2475 c-3 -9 -6 -24 -5 -33 0 -9 5 -4 10 12 9 32 6 48 -5 21z"/>
<path d="M3510 2474 c0 -8 -4 -12 -10 -9 -5 3 -10 2 -10 -3 0 -23 26 -18 28 4
1 13 0 24 -3 24 -3 0 -5 -7 -5 -16z"/>
<path d="M3581 2474 c0 -11 3 -14 6 -6 3 7 2 16 -1 19 -3 4 -6 -2 -5 -13z"/>
<path d="M3630 2475 c10 -12 16 -13 27 -4 7 7 11 14 8 18 -3 3 -10 -1 -15 -9
-7 -10 -10 -11 -10 -2 0 6 -5 12 -11 12 -8 0 -8 -5 1 -15z"/>
<path d="M3723 2463 c0 -16 2 -21 7 -13 6 9 10 8 19 -6 9 -17 10 -17 11 -1 0
9 -4 17 -10 17 -5 0 -10 7 -10 15 0 26 -15 16 -17 -12z"/>
<path d="M3932 2460 c0 -19 2 -27 5 -17 2 9 2 25 0 35 -3 9 -5 1 -5 -18z"/>
<path d="M3960 2475 c0 -8 4 -15 10 -15 5 0 7 7 4 15 -4 8 -8 15 -10 15 -2 0
-4 -7 -4 -15z"/>
<path d="M4232 2460 c0 -19 2 -27 5 -17 2 9 2 25 0 35 -3 9 -5 1 -5 -18z"/>
<path d="M4310 2475 c0 -9 -6 -12 -15 -9 -11 5 -15 0 -14 -17 0 -13 3 -18 6
-11 4 10 8 10 19 1 11 -9 14 -6 14 20 0 17 -2 31 -5 31 -3 0 -5 -7 -5 -15z"/>
<path d="M4512 2460 c0 -19 2 -27 5 -17 2 9 2 25 0 35 -3 9 -5 1 -5 -18z"/>
<path d="M4530 2481 c0 -6 5 -13 10 -16 6 -3 10 1 10 9 0 9 -4 16 -10 16 -5 0
-10 -4 -10 -9z"/>
<path d="M4557 2471 c-2 -10 -1 -25 4 -32 6 -10 9 -4 9 19 0 36 -5 42 -13 13z"/>
<path d="M4081 2455 c-1 -23 2 -27 9 -15 9 13 11 13 20 0 8 -12 10 -10 10 9 0
16 -4 21 -14 18 -8 -3 -17 -1 -20 6 -2 7 -5 -1 -5 -18z"/>
<path d="M3531 2454 c0 -11 3 -14 6 -6 3 7 2 16 -1 19 -3 4 -6 -2 -5 -13z"/>
<path d="M3602 2450 c0 -14 2 -19 5 -12 2 6 2 18 0 25 -3 6 -5 1 -5 -13z"/>
<path d="M3682 2450 c0 -14 2 -19 5 -12 2 6 2 18 0 25 -3 6 -5 1 -5 -13z"/>
<path d="M1429 2453 c-12 -3 -18 -22 -23 -81 -4 -42 -12 -82 -18 -89 -19 -23
-2 -40 36 -35 27 3 36 9 36 22 0 10 -5 20 -12 22 -6 2 -8 10 -4 16 9 15 52 16
61 2 3 -5 2 -10 -3 -10 -5 0 -9 -7 -9 -15 0 -10 11 -15 34 -15 38 0 55 24 30
43 -8 7 -30 42 -48 80 -32 65 -40 71 -80 60z m35 -91 c-21 -5 -24 0 -17 27 l6
23 13 -23 c11 -20 10 -25 -2 -27z"/>
<path d="M3461 2444 c0 -11 3 -14 6 -6 3 7 2 16 -1 19 -3 4 -6 -2 -5 -13z"/>
<path d="M3140 2440 c0 -5 7 -7 15 -4 8 4 15 8 15 10 0 2 -7 4 -15 4 -8 0 -15
-4 -15 -10z"/>
<path d="M1234 2419 c-44 -13 -55 -43 -41 -115 15 -75 43 -94 106 -75 47 14
74 52 52 74 -9 9 -16 7 -29 -10 -9 -12 -29 -24 -45 -27 -31 -5 -41 8 -50 67
-5 34 -3 39 21 48 19 7 32 7 44 0 44 -27 68 4 26 33 -25 18 -38 18 -84 5z"/>
<path d="M2676 2178 c-15 -35 -49 -102 -77 -149 -27 -48 -49 -89 -49 -93 0 -3
409 -6 909 -6 1064 0 954 -14 960 124 1 48 0 102 -3 121 -13 70 52 65 -875 65
l-838 0 -27 -62z m278 -37 c10 -11 15 -25 11 -32 -5 -6 -8 -21 -9 -32 -1 -11
-6 -22 -13 -24 -9 -3 -9 5 -2 32 6 20 7 44 3 53 -6 15 -18 -23 -26 -85 -2 -15
-1 -15 -22 -7 -14 6 -15 8 -2 18 8 6 17 25 19 43 4 26 2 31 -11 26 -13 -3 -13
-1 2 11 25 20 29 20 50 -3z m227 -3 l0 -23 9 23 c11 26 24 30 16 5 -15 -54
-18 -85 -7 -79 6 4 11 18 11 31 0 31 10 55 22 55 10 0 7 -32 -7 -75 -6 -16 -3
-16 14 5 11 14 21 33 21 43 0 9 3 17 8 17 9 0 9 -76 0 -86 -4 -4 -26 -7 -48
-8 -37 -1 -45 5 -41 28 1 5 -1 22 -5 39 -4 22 -8 26 -15 16 -12 -19 -11 -32 1
-24 16 10 12 -7 -7 -27 -9 -10 -12 -18 -6 -18 5 0 8 -14 5 -30 -5 -34 -25 -36
-30 -3 -2 17 -9 20 -39 17 l-35 -3 5 37 6 37 -19 -35 c-11 -19 -19 -31 -20
-26 0 5 -7 3 -15 -4 -19 -15 -35 -5 -35 24 0 32 22 58 39 47 12 -8 12 -13 -3
-35 -9 -15 -12 -26 -6 -26 6 0 16 14 21 30 8 22 17 30 35 30 27 0 27 0 14 -34
-6 -17 -6 -26 0 -26 6 0 10 9 10 19 0 28 29 54 45 41 10 -8 14 -4 19 15 8 31
36 33 37 3z m234 11 c8 -12 -14 -69 -26 -69 -5 0 -9 -5 -9 -11 0 -6 8 -8 18
-5 15 5 15 5 -1 -8 -10 -8 -17 -22 -15 -33 2 -11 -3 -18 -12 -18 -10 0 -14 8
-12 28 3 27 -11 37 -23 17 -4 -6 -11 -8 -16 -5 -15 10 -10 52 8 70 15 15 18
16 28 2 9 -13 13 -11 22 14 12 30 27 37 38 18z m220 1 c3 -6 3 -20 0 -31 -6
-17 -9 -19 -17 -8 -7 11 -8 9 -4 -5 4 -10 1 -25 -5 -32 -7 -9 -8 -14 -1 -14 5
0 19 16 31 36 12 19 26 32 31 29 15 -9 12 -32 -7 -51 -13 -13 -14 -16 -3 -12
8 2 21 17 28 31 14 28 36 35 48 16 4 -7 9 -8 13 -1 8 14 46 20 45 7 -1 -5 -5
-21 -9 -34 -6 -18 -4 -22 6 -15 12 7 12 5 0 -9 -19 -23 -32 -11 -21 18 6 15 6
25 1 25 -5 0 -12 -13 -16 -28 -4 -22 -11 -28 -33 -27 -15 0 -30 4 -34 10 -5 6
-12 5 -19 -2 -9 -9 -16 -10 -26 -2 -9 8 -17 8 -27 0 -10 -9 -16 -9 -21 -1 -5
8 -11 8 -20 0 -20 -17 -35 -4 -35 29 0 31 24 59 35 41 10 -16 25 -12 25 8 0
30 22 43 35 22z m402 -27 c-3 -16 -9 -36 -12 -45 -4 -11 -3 -18 4 -18 6 0 11
8 11 18 0 10 7 27 15 38 15 18 17 18 27 2 11 -15 13 -15 25 0 12 16 14 16 27
-1 8 -10 16 -14 17 -8 2 5 13 11 24 13 21 3 24 -11 9 -46 -6 -15 -4 -17 7 -11
12 8 12 6 0 -8 -20 -25 -24 -21 -18 18 7 42 0 46 -14 6 -11 -31 -45 -47 -65
-30 -7 6 -10 18 -7 26 5 12 3 14 -7 8 -10 -6 -12 -4 -7 8 3 10 2 17 -3 17 -5
0 -9 -11 -8 -25 1 -14 7 -25 12 -25 7 0 7 -3 0 -10 -5 -5 -22 -6 -39 -2 -27 8
-30 12 -27 43 4 31 17 59 29 59 3 0 3 -12 0 -27z m-544 -41 c-5 -20 -3 -23 8
-17 12 7 12 6 1 -7 -20 -24 -52 -11 -52 21 0 35 19 55 37 40 8 -7 10 -21 6
-37z m390 11 c-6 -14 -7 -14 -13 2 -6 17 -7 17 -13 1 -11 -27 -8 -36 9 -36 9
0 21 14 27 30 14 38 42 36 42 -3 -1 -35 4 -34 16 2 6 16 19 31 30 34 18 5 19
1 15 -36 -2 -23 -5 -44 -5 -46 -1 -3 -6 0 -12 6 -8 8 -8 17 1 33 6 12 9 24 6
27 -3 4 -11 -8 -17 -24 -11 -33 -33 -44 -64 -33 -11 4 -25 3 -32 -2 -18 -14
-33 0 -33 31 0 34 18 55 36 40 7 -6 10 -18 7 -26z m347 7 c0 -5 -5 -10 -11
-10 -5 0 -7 5 -4 10 3 6 8 10 11 10 2 0 4 -4 4 -10z m0 -44 c0 -3 -4 -8 -10
-11 -5 -3 -10 -1 -10 4 0 6 5 11 10 11 6 0 10 -2 10 -4z"/>
<path d="M3109 2108 c-1 -2 -3 -13 -4 -26 -2 -24 15 -26 23 -2 3 8 0 10 -8 5
-10 -6 -12 -4 -7 8 5 13 1 25 -4 15z"/>
<path d="M3252 2070 c0 -14 2 -19 5 -12 2 6 2 18 0 25 -3 6 -5 1 -5 -13z"/>
<path d="M3387 2118 c-9 -31 -2 -33 11 -3 6 14 8 25 3 25 -5 0 -11 -10 -14
-22z"/>
<path d="M3330 2094 c0 -8 5 -12 10 -9 6 3 10 10 10 16 0 5 -4 9 -10 9 -5 0
-10 -7 -10 -16z"/>
<path d="M3557 2096 c-4 -11 -3 -24 2 -29 10 -10 31 -1 31 14 0 6 -4 8 -9 4
-5 -3 -11 3 -13 12 -3 16 -4 16 -11 -1z"/>
<path d="M3655 2099 c-4 -6 -5 -12 -2 -15 2 -3 7 2 10 11 7 17 1 20 -8 4z"/>
<path d="M3705 2090 c-4 -12 -5 -24 -2 -27 3 -2 8 5 12 17 4 12 5 24 2 27 -3
2 -8 -5 -12 -17z"/>
<path d="M3731 2074 c0 -11 3 -14 6 -6 3 7 2 16 -1 19 -3 4 -6 -2 -5 -13z"/>
<path d="M4110 2095 c0 -8 2 -15 4 -15 2 0 6 7 10 15 3 8 1 15 -4 15 -6 0 -10
-7 -10 -15z"/>
<path d="M4122 2074 c-7 -8 -8 -14 -3 -14 10 0 25 19 20 25 -2 1 -10 -3 -17
-11z"/>
<path d="M3467 2097 c-11 -29 -9 -43 4 -30 6 6 9 19 7 29 -3 18 -4 18 -11 1z"/>
<path d="M3910 2101 c0 -5 -3 -17 -7 -27 -4 -11 -3 -15 4 -11 14 9 24 47 12
47 -5 0 -9 -4 -9 -9z"/>
<path d="M163 2204 c-73 -26 -141 -120 -142 -196 -1 -40 34 -125 61 -149 35
-31 99 -59 136 -59 25 0 35 -5 39 -20 3 -11 7 -20 10 -20 8 0 93 63 93 69 0 3
-28 93 -62 199 -46 139 -67 192 -78 191 -8 0 -34 -7 -57 -15z"/>
<path d="M1377 2128 c-19 -14 -36 -73 -37 -125 0 -37 23 -57 78 -67 27 -5 38
-1 58 19 13 13 24 29 24 35 0 15 -36 12 -49 -4 -8 -10 -21 -12 -39 -7 -22 6
-28 14 -30 44 -5 62 23 90 72 71 9 -3 16 -12 16 -20 0 -8 9 -14 20 -14 25 0
26 21 3 49 -23 26 -91 38 -116 19z"/>
<path d="M1537 2106 c-3 -7 -1 -18 4 -23 14 -14 -1 -113 -17 -120 -15 -6 -19
-29 -6 -36 4 -3 35 -8 70 -12 l62 -7 0 31 c0 31 -16 41 -36 21 -6 -6 -18 -8
-26 -5 -13 5 -14 15 -6 58 6 29 14 58 20 64 6 7 8 20 4 28 -7 19 -62 20 -69 1z"/>
<path d="M1694 2085 c-4 -9 -2 -20 3 -24 13 -7 -4 -121 -18 -121 -5 0 -9 -8
-9 -19 0 -20 34 -31 96 -31 24 0 34 5 39 20 3 11 3 24 0 30 -8 13 -35 13 -35
0 0 -5 -9 -10 -21 -10 -28 0 -21 34 9 38 27 4 29 32 2 39 -11 3 -20 12 -20 19
0 22 28 28 46 10 22 -22 38 -15 42 17 3 23 -1 27 -35 32 -21 4 -50 9 -66 11
-19 4 -29 1 -33 -11z"/>
<path d="M1884 1997 c-19 -39 -41 -75 -49 -80 -35 -19 -6 -46 48 -47 14 0 18
6 15 28 -3 25 -1 27 27 24 34 -4 46 -13 28 -19 -21 -8 -16 -43 6 -43 11 0 26
-3 35 -6 18 -7 35 24 18 35 -6 3 -17 42 -24 86 -12 73 -15 79 -41 86 -27 7
-29 5 -63 -64z m65 -23 c1 -6 -6 -11 -14 -11 -17 0 -17 2 -8 36 6 23 7 23 14
5 4 -10 8 -24 8 -30z"/>
<path d="M2060 2032 c0 -10 4 -22 9 -27 12 -12 -5 -109 -19 -113 -16 -6 -12
-39 6 -46 28 -11 54 -6 61 10 3 9 0 20 -7 24 -10 6 -11 16 -4 42 l10 33 28
-62 c20 -43 34 -63 47 -63 20 0 25 13 35 93 4 39 11 57 20 57 8 0 14 8 14 19
0 16 -33 31 -71 31 -11 0 -12 -37 -1 -44 11 -6 3 -66 -8 -66 -4 0 -16 23 -26
51 -21 56 -27 63 -66 73 -23 5 -28 3 -28 -12z"/>
<path d="M2275 1986 c-13 -72 -11 -109 7 -111 13 -2 18 7 23 43 3 26 8 57 10
68 4 15 -1 23 -15 27 -16 4 -21 -1 -25 -27z"/>
<path d="M419 1853 c-12 -3 -17 -14 -16 -39 l1 -34 28 27 c42 41 37 60 -13 46z"/>
<path d="M2257 1854 c-14 -15 -6 -34 14 -34 14 0 19 5 17 17 -3 18 -20 27 -31
17z"/>
<path d="M2890 1723 c0 -35 1 -36 15 -17 8 10 14 24 15 29 0 6 -5 3 -11 -5 -9
-12 -10 -11 -6 8 3 12 1 22 -4 22 -5 0 -9 -17 -9 -37z"/>
<path d="M2935 1750 c-3 -6 1 -7 9 -4 18 7 21 14 7 14 -6 0 -13 -4 -16 -10z"/>
<path d="M3200 1748 c0 -19 27 -31 36 -17 3 6 3 13 0 16 -3 4 -6 0 -6 -8 -1
-10 -5 -8 -15 5 -12 16 -15 17 -15 4z"/>
<path d="M3306 1752 c-2 -4 4 -8 14 -8 10 0 16 4 14 8 -3 4 -9 8 -14 8 -5 0
-11 -4 -14 -8z"/>
<path d="M3438 1753 c7 -3 16 -2 19 1 4 3 -2 6 -13 5 -11 0 -14 -3 -6 -6z"/>
<path d="M3779 1751 c9 -6 11 -16 7 -27 -6 -15 -4 -16 5 -7 14 14 5 43 -13 43
-10 0 -9 -3 1 -9z"/>
<path d="M3864 1749 c-3 -6 1 -17 10 -25 9 -8 11 -9 6 -2 -13 16 -13 31 0 23
6 -3 10 -1 10 4 0 14 -17 14 -26 0z"/>
<path d="M3946 1751 c-3 -5 1 -14 9 -21 8 -7 15 -20 16 -29 0 -11 2 -12 6 -3
3 7 -3 23 -13 34 -18 20 -18 21 -1 15 11 -4 16 -3 12 3 -8 12 -22 13 -29 1z"/>
<path d="M4110 1725 c0 -19 2 -35 4 -35 2 0 6 16 8 35 2 19 0 35 -4 35 -4 0
-8 -16 -8 -35z"/>
<path d="M4188 1753 c7 -3 16 -2 19 1 4 3 -2 6 -13 5 -11 0 -14 -3 -6 -6z"/>
<path d="M3360 1741 c0 -5 -3 -16 -6 -25 -4 -11 -1 -16 12 -15 11 0 14 3 8 5
-7 3 -10 14 -7 24 3 11 3 20 -1 20 -3 0 -6 -4 -6 -9z"/>
<path d="M3601 1734 c0 -11 3 -14 6 -6 3 7 2 16 -1 19 -3 4 -6 -2 -5 -13z"/>
<path d="M3716 1735 c-3 -9 -6 -24 -5 -33 0 -9 5 -4 10 12 9 32 6 48 -5 21z"/>
<path d="M4146 1724 c-8 -31 -5 -36 14 -24 9 6 10 10 3 10 -6 0 -9 9 -6 20 3
11 3 20 0 20 -3 0 -8 -12 -11 -26z"/>
<path d="M4252 1720 c0 -19 2 -27 5 -17 2 9 2 25 0 35 -3 9 -5 1 -5 -18z"/>
<path d="M2850 1721 c0 -25 6 -27 13 -6 4 8 2 17 -3 20 -6 4 -10 -3 -10 -14z"/>
<path d="M2982 1715 c0 -16 2 -22 5 -12 2 9 2 23 0 30 -3 6 -5 -1 -5 -18z"/>
<path d="M3181 1724 c0 -11 3 -14 6 -6 3 7 2 16 -1 19 -3 4 -6 -2 -5 -13z"/>
<path d="M3524 1728 c3 -15 26 -23 26 -8 0 6 -4 9 -9 6 -5 -4 -12 -1 -14 4 -3
6 -4 5 -3 -2z"/>
<path d="M4060 1736 c0 -2 8 -10 18 -17 15 -13 16 -12 3 4 -13 16 -21 21 -21
13z"/>
<path d="M4181 1724 c0 -11 3 -14 6 -6 3 7 2 16 -1 19 -3 4 -6 -2 -5 -13z"/>
<path d="M3081 1714 c0 -11 3 -14 6 -6 3 7 2 16 -1 19 -3 4 -6 -2 -5 -13z"/>
<path d="M3112 1710 c0 -14 2 -19 5 -12 2 6 2 18 0 25 -3 6 -5 1 -5 -13z"/>
<path d="M3322 1716 c7 -8 15 -12 17 -11 5 6 -10 25 -20 25 -5 0 -4 -6 3 -14z"/>
<path d="M4221 1714 c0 -11 3 -14 6 -6 3 7 2 16 -1 19 -3 4 -6 -2 -5 -13z"/>
<path d="M3201 1704 c0 -11 3 -14 6 -6 3 7 2 16 -1 19 -3 4 -6 -2 -5 -13z"/>
<path d="M335 1680 c3 -19 30 -77 61 -128 30 -51 52 -97 49 -103 -4 -5 -1 -16
5 -24 10 -13 24 -9 89 26 94 51 97 54 81 74 -7 8 -15 13 -18 10 -3 -3 -11 0
-17 5 -8 7 -18 4 -30 -10 -23 -25 -51 -26 -64 -1 -6 10 -22 22 -36 25 -14 4
-25 11 -25 16 0 6 -11 20 -25 32 -14 12 -25 30 -25 39 0 10 -6 22 -13 26 -8 4
-19 17 -26 28 -11 18 -12 16 -6 -15z"/>
<path d="M3590 1700 c0 -5 7 -7 15 -4 8 4 15 8 15 10 0 2 -7 4 -15 4 -8 0 -15
-4 -15 -10z"/>
<path d="M3000 1630 c0 -8 -3 -25 -6 -38 -5 -18 -3 -21 11 -16 12 5 13 9 5 14
-9 6 -9 9 0 12 10 3 11 9 2 24 -8 14 -12 15 -12 4z"/>
<path d="M3185 1630 c-4 -6 -1 -18 6 -26 10 -13 10 -17 -2 -25 -9 -5 -10 -9
-2 -9 19 0 26 19 13 35 -6 8 -9 19 -5 25 3 5 4 10 1 10 -3 0 -8 -5 -11 -10z"/>
<path d="M3230 1628 c0 -7 -3 -23 -6 -36 -5 -18 -3 -21 12 -15 10 4 13 8 7 10
-5 2 -8 15 -5 28 2 14 2 25 -2 25 -3 0 -6 -6 -6 -12z"/>
<path d="M3262 1620 c0 -14 2 -19 5 -12 2 6 2 18 0 25 -3 6 -5 1 -5 -13z"/>
<path d="M3330 1632 c0 -6 -7 -9 -15 -6 -12 5 -15 -1 -14 -27 1 -24 3 -27 6
-11 2 12 9 20 14 17 11 -7 25 23 15 32 -3 4 -6 1 -6 -5z"/>
<path d="M3378 1615 c3 -17 -1 -31 -9 -37 -12 -8 -11 -9 1 -5 18 4 26 45 12
59 -6 6 -8 0 -4 -17z"/>
<path d="M3400 1630 c1 -17 28 -56 34 -49 3 3 -4 18 -14 34 -11 17 -20 23 -20
15z"/>
<path d="M3450 1620 c0 -11 2 -20 4 -20 2 0 6 9 9 20 3 11 1 20 -4 20 -5 0 -9
-9 -9 -20z"/>
<path d="M3580 1623 c0 -13 5 -23 10 -23 13 0 13 11 0 30 -8 12 -10 11 -10 -7z"/>
<path d="M3670 1629 c0 -5 5 -7 10 -4 6 3 10 8 10 11 0 2 -4 4 -10 4 -5 0 -10
-5 -10 -11z"/>
<path d="M3762 1620 c0 -14 2 -19 5 -12 2 6 2 18 0 25 -3 6 -5 1 -5 -13z"/>
<path d="M3803 1605 c0 -22 2 -30 4 -17 2 12 2 30 0 40 -3 9 -5 -1 -4 -23z"/>
<path d="M3887 1626 c-4 -10 -5 -21 -2 -24 9 -9 17 6 13 25 -3 17 -4 17 -11
-1z"/>
<path d="M3920 1610 c0 -26 3 -31 10 -20 8 12 10 12 10 1 0 -8 2 -12 5 -9 3 3
-1 18 -10 34 l-15 29 0 -35z"/>
<path d="M3970 1629 c0 -5 5 -7 10 -4 6 3 10 8 10 11 0 2 -4 4 -10 4 -5 0 -10
-5 -10 -11z"/>
<path d="M4060 1629 c0 -5 5 -7 10 -4 6 3 10 8 10 11 0 2 -4 4 -10 4 -5 0 -10
-5 -10 -11z"/>
<path d="M4383 1605 c0 -22 2 -30 4 -17 2 12 2 30 0 40 -3 9 -5 -1 -4 -23z"/>
<path d="M4410 1636 c0 -2 7 -7 16 -10 8 -3 12 -2 9 4 -6 10 -25 14 -25 6z"/>
<path d="M4497 1633 c-4 -3 -7 -20 -7 -36 0 -38 13 -27 15 13 2 32 2 33 -8 23z"/>
<path d="M3040 1616 c0 -9 4 -16 9 -16 5 0 12 -8 14 -17 4 -17 5 -17 6 0 0 10
-6 25 -14 33 -13 14 -15 14 -15 0z"/>
<path d="M4150 1623 c0 -6 8 -17 18 -24 16 -13 16 -13 2 6 -8 11 -16 22 -17
24 -2 2 -3 0 -3 -6z"/>
<path d="M4287 1623 c-3 -5 3 -20 14 -33 12 -17 19 -20 18 -10 0 20 -26 54
-32 43z"/>
<path d="M4451 1614 c0 -11 3 -14 6 -6 3 7 2 16 -1 19 -3 4 -6 -2 -5 -13z"/>
<path d="M3491 1604 c0 -11 3 -14 6 -6 3 7 2 16 -1 19 -3 4 -6 -2 -5 -13z"/>
<path d="M4337 1609 c7 -7 15 -10 18 -7 3 3 -2 9 -12 12 -14 6 -15 5 -6 -5z"/>
<path d="M2705 1591 c-48 -22 -69 -44 -90 -94 -21 -51 -19 -95 8 -142 74 -131
259 -120 312 20 32 81 -9 180 -88 216 -53 23 -91 24 -142 0z m101 -89 c-3 -10
-12 -43 -21 -74 -11 -38 -22 -58 -32 -58 -9 0 -13 6 -10 14 14 37 19 89 8 82
-20 -13 -12 7 16 36 27 28 47 28 39 0z"/>
<path d="M3111 1594 c0 -11 3 -14 6 -6 3 7 2 16 -1 19 -3 4 -6 -2 -5 -13z"/>
<path d="M3732 1590 c0 -14 2 -19 5 -12 2 6 2 18 0 25 -3 6 -5 1 -5 -13z"/>
<path d="M3970 1590 c0 -11 2 -20 4 -20 2 0 6 9 9 20 3 11 1 20 -4 20 -5 0 -9
-9 -9 -20z"/>
<path d="M4060 1606 c0 -2 7 -6 15 -10 8 -3 15 -1 15 4 0 6 -7 10 -15 10 -8 0
-15 -2 -15 -4z"/>
<path d="M3570 1580 c0 -5 7 -7 15 -4 8 4 15 8 15 10 0 2 -7 4 -15 4 -8 0 -15
-4 -15 -10z"/>
<path d="M3750 1580 c0 -5 7 -7 15 -4 8 4 15 8 15 10 0 2 -7 4 -15 4 -8 0 -15
-4 -15 -10z"/>
<path d="M3888 1583 c7 -3 16 -2 19 1 4 3 -2 6 -13 5 -11 0 -14 -3 -6 -6z"/>
<path d="M151 1529 c-21 -17 -23 -22 -10 -30 10 -8 8 -9 -9 -4 -18 5 -37 -2
-73 -27 -53 -36 -60 -48 -29 -48 11 0 20 4 20 9 0 5 8 12 18 15 10 4 7 -3 -10
-18 l-27 -24 42 -29 c23 -15 48 -33 54 -40 7 -6 35 -19 62 -28 47 -15 51 -15
70 2 12 9 21 27 21 38 -1 18 -3 17 -21 -7 -21 -28 -43 -36 -53 -19 -4 5 3 7
13 4 14 -4 24 3 35 26 18 34 20 45 7 37 -4 -3 -13 6 -19 19 -9 20 -9 25 3 25
9 0 12 -6 9 -17 -5 -14 -4 -15 4 -4 8 10 11 6 17 -18 3 -17 11 -31 17 -31 6 0
7 -7 4 -16 -6 -15 -4 -15 10 -3 10 8 12 15 5 17 -6 2 -11 8 -11 14 0 11 -112
178 -120 177 -3 0 -16 -9 -29 -20z m26 -60 c-8 -21 -13 -26 -15 -15 -2 10 2
23 8 31 18 22 20 18 7 -16z m41 -17 c-21 -4 -24 -18 -5 -25 6 -2 8 -8 4 -13
-4 -5 -12 -2 -18 6 -8 13 -10 13 -20 0 -9 -13 -10 -13 -5 0 3 8 9 22 12 31 4
11 13 15 27 11 18 -5 19 -7 5 -10z m-118 -46 c0 -2 -7 -7 -16 -10 -8 -3 -12
-2 -9 4 6 10 25 14 25 6z m70 -32 c21 -38 5 -39 -18 0 -13 21 -16 33 -8 30 7
-3 19 -16 26 -30z m-25 -14 c3 -5 1 -10 -4 -10 -6 0 -11 5 -11 10 0 6 2 10 4
10 3 0 8 -4 11 -10z"/>
<path d="M3045 1520 c-3 -6 1 -7 9 -4 18 7 21 14 7 14 -6 0 -13 -4 -16 -10z"/>
<path d="M3545 1519 c-4 -6 -5 -12 -2 -15 2 -3 7 2 10 11 7 17 1 20 -8 4z"/>
<path d="M3585 1519 c-4 -6 -4 -13 -1 -16 3 -4 6 -1 6 6 0 8 6 11 16 7 8 -3
12 -2 9 4 -8 13 -22 13 -30 -1z"/>
<path d="M3634 1519 c-4 -8 -3 -9 4 -5 7 4 12 3 12 -3 0 -5 -6 -12 -12 -14 -8
-3 -6 -6 5 -6 9 -1 17 5 17 13 0 20 -17 29 -26 15z"/>
<path d="M3674 1516 c-3 -8 -4 -23 -2 -33 3 -11 6 -6 9 15 6 34 2 42 -7 18z"/>
<path d="M4195 1520 c-3 -6 1 -7 9 -4 18 7 21 14 7 14 -6 0 -13 -4 -16 -10z"/>
<path d="M4423 1495 c0 -22 2 -30 4 -17 2 12 2 30 0 40 -3 9 -5 -1 -4 -23z"/>
<path d="M3150 1506 c0 -9 -4 -14 -10 -11 -5 3 -10 1 -10 -4 0 -6 5 -11 10
-11 13 0 25 28 16 37 -3 4 -6 -1 -6 -11z"/>
<path d="M3222 1510 c6 -18 30 -20 34 -2 1 7 0 8 -3 2 -3 -7 -10 -7 -21 2 -13
11 -14 11 -10 -2z"/>
<path d="M3278 1492 c-2 -18 0 -29 8 -29 13 0 16 44 4 52 -4 3 -10 -8 -12 -23z"/>
<path d="M3321 1510 c0 -8 6 -24 14 -34 13 -17 15 -18 15 -3 0 9 -4 17 -9 17
-5 0 -12 8 -14 18 -3 12 -5 13 -6 2z"/>
<path d="M3721 1507 c0 -10 5 -25 13 -33 13 -12 15 -12 13 5 0 11 -4 18 -8 15
-4 -2 -10 4 -12 13 -4 17 -5 17 -6 0z"/>
<path d="M3760 1511 c0 -6 5 -13 10 -16 6 -3 10 1 10 9 0 9 -4 16 -10 16 -5 0
-10 -4 -10 -9z"/>
<path d="M3912 1490 c0 -19 2 -27 5 -17 2 9 2 25 0 35 -3 9 -5 1 -5 -18z"/>
<path d="M3932 1490 c0 -19 2 -27 5 -17 2 9 2 25 0 35 -3 9 -5 1 -5 -18z"/>
<path d="M3972 1490 c0 -19 2 -27 5 -17 2 9 2 25 0 35 -3 9 -5 1 -5 -18z"/>
<path d="M4013 1488 c-1 -27 1 -29 7 -13 11 27 12 45 2 45 -5 0 -9 -15 -9 -32z"/>
<path d="M4062 1489 c1 -17 4 -25 8 -18 7 10 2 49 -5 49 -2 0 -3 -14 -3 -31z"/>
<path d="M4240 1513 c0 -6 8 -17 18 -24 16 -13 16 -13 2 6 -8 11 -16 22 -17
24 -2 2 -3 0 -3 -6z"/>
<path d="M4341 1510 c0 -8 4 -24 9 -35 5 -13 9 -14 9 -5 0 8 -4 24 -9 35 -5
13 -9 14 -9 5z"/>
<path d="M4370 1505 c0 -8 5 -15 10 -15 6 0 10 7 10 15 0 8 -4 15 -10 15 -5 0
-10 -7 -10 -15z"/>
<path d="M3082 1485 c0 -16 2 -22 5 -12 2 9 2 23 0 30 -3 6 -5 -1 -5 -18z"/>
<path d="M3375 1500 c3 -5 8 -10 11 -10 2 0 4 5 4 10 0 6 -5 10 -11 10 -5 0
-7 -4 -4 -10z"/>
<path d="M4162 1488 c7 -15 15 -23 17 -17 2 6 -4 18 -13 27 -15 15 -15 15 -4
-10z"/>
<path d="M4121 1483 c7 -12 15 -20 18 -17 3 2 -3 12 -13 22 -17 16 -18 16 -5
-5z"/>
<path d="M3780 1481 c0 -6 5 -13 10 -16 6 -3 10 1 10 9 0 9 -4 16 -10 16 -5 0
-10 -4 -10 -9z"/>
<path d="M3814 1479 c-3 -6 -2 -15 3 -20 5 -5 9 -1 9 11 0 23 -2 24 -12 9z"/>
<path d="M4030 1481 c0 -6 5 -13 10 -16 6 -3 10 1 10 9 0 9 -4 16 -10 16 -5 0
-10 -4 -10 -9z"/>
<path d="M4390 1481 c0 -6 5 -13 10 -16 6 -3 10 1 10 9 0 9 -4 16 -10 16 -5 0
-10 -4 -10 -9z"/>
<path d="M4246 1458 c3 -5 10 -6 15 -3 13 9 11 12 -6 12 -8 0 -12 -4 -9 -9z"/>
<path d="M3071 1394 c0 -11 3 -14 6 -6 3 7 2 16 -1 19 -3 4 -6 -2 -5 -13z"/>
<path d="M3202 1383 c-2 -34 12 -51 24 -32 4 7 3 9 -4 5 -7 -4 -12 6 -15 26
l-4 33 -1 -32z"/>
<path d="M3361 1397 c0 -10 6 -25 14 -33 13 -14 15 -13 15 6 0 12 -4 19 -9 15
-5 -3 -12 3 -14 12 -4 17 -5 17 -6 0z"/>
<path d="M3520 1395 c0 -8 4 -15 10 -15 5 0 7 7 4 15 -4 8 -8 15 -10 15 -2 0
-4 -7 -4 -15z"/>
<path d="M3781 1380 c0 -24 2 -31 8 -21 5 7 15 10 22 7 8 -4 7 -2 -2 6 -9 7
-18 20 -22 28 -3 8 -6 -1 -6 -20z"/>
<path d="M3831 1373 c0 -29 2 -33 8 -18 7 18 4 55 -5 55 -2 0 -4 -17 -3 -37z"/>
<path d="M3873 1384 c0 -25 3 -29 12 -20 7 6 9 13 5 16 -4 3 -9 12 -12 20 -3
8 -6 1 -5 -16z"/>
<path d="M3970 1398 c0 -11 8 -18 20 -18 12 0 20 7 20 18 0 14 -2 15 -10 2 -9
-13 -11 -13 -20 0 -8 13 -10 12 -10 -2z"/>
<path d="M4045 1400 c-3 -6 1 -7 9 -4 18 7 21 14 7 14 -6 0 -13 -4 -16 -10z"/>
<path d="M4092 1380 c0 -19 2 -29 5 -22 2 6 9 10 14 6 5 -3 9 0 9 5 0 6 -4 11
-9 11 -5 0 -12 8 -14 18 -3 9 -5 1 -5 -18z"/>
<path d="M3567 1374 c9 -15 19 -22 21 -15 2 6 -3 18 -11 26 -24 24 -29 18 -10
-11z"/>
<path d="M3292 1370 c0 -14 2 -19 5 -12 2 6 2 18 0 25 -3 6 -5 1 -5 -13z"/>
<path d="M3420 1377 c12 -16 12 -20 -1 -28 -9 -5 -10 -9 -2 -9 22 0 26 22 7
38 -17 16 -17 16 -4 -1z"/>
<path d="M3091 1364 c0 -11 3 -14 6 -6 3 7 2 16 -1 19 -3 4 -6 -2 -5 -13z"/>
<path d="M4157 1361 c-4 -17 -3 -21 5 -13 5 5 8 16 6 23 -3 8 -7 3 -11 -10z"/>
<path d="M3520 1360 c-13 -8 -12 -10 3 -10 9 0 17 5 17 10 0 12 -1 12 -20 0z"/>
<path d="M3600 1361 c0 -10 19 -25 25 -20 1 2 -3 10 -11 17 -8 7 -14 8 -14 3z"/>
<path d="M2993 1285 c-3 -9 -3 -19 1 -22 3 -4 6 2 6 11 0 12 5 16 16 12 8 -3
12 -2 9 4 -9 15 -25 12 -32 -5z"/>
<path d="M3040 1290 c0 -6 5 -8 10 -5 6 3 10 1 10 -4 0 -6 -4 -11 -10 -11 -5
0 -10 -4 -10 -10 0 -5 7 -7 15 -3 9 3 15 12 13 21 -4 18 -28 29 -28 12z"/>
<path d="M3171 1265 c1 -35 2 -37 9 -15 7 21 8 22 10 5 1 -11 4 -14 7 -8 2 7
-3 23 -11 35 -16 22 -16 22 -15 -17z"/>
<path d="M3244 1289 c-3 -6 1 -18 10 -27 10 -11 16 -12 16 -4 0 7 -5 12 -11
12 -6 0 -9 7 -5 15 6 17 0 20 -10 4z"/>
<path d="M3316 1292 c-4 -7 -12 -10 -17 -7 -5 4 -9 2 -9 -4 0 -15 14 -21 29
-11 7 4 11 14 9 21 -3 10 -6 10 -12 1z"/>
<path d="M3695 1291 c-3 -6 0 -8 9 -5 8 3 16 -1 19 -10 4 -14 5 -14 3 0 -1 20
-21 30 -31 15z"/>
<path d="M3742 1273 c-2 -34 12 -51 24 -32 4 7 3 9 -4 5 -7 -4 -12 6 -15 26
l-4 33 -1 -32z"/>
<path d="M3923 1265 c0 -22 2 -30 4 -17 2 12 2 30 0 40 -3 9 -5 -1 -4 -23z"/>
<path d="M4010 1289 c0 -5 5 -7 10 -4 6 3 10 1 10 -4 0 -6 -4 -11 -10 -11 -5
0 -10 -7 -10 -16 0 -14 2 -14 16 1 9 8 13 22 10 30 -6 17 -26 20 -26 4z"/>
<path d="M4292 1263 l1 -38 5 35 c4 30 6 32 13 15 8 -19 9 -19 6 -1 -1 11 -8
21 -14 24 -9 2 -13 -8 -11 -35z"/>
<path d="M3136 1274 c-8 -21 -8 -34 2 -34 4 0 9 11 10 25 2 28 -3 32 -12 9z"/>
<path d="M3340 1283 c0 -6 8 -17 18 -24 16 -13 16 -13 2 6 -8 11 -16 22 -17
24 -2 2 -3 0 -3 -6z"/>
<path d="M3534 1273 c2 -12 -1 -24 -8 -27 -6 -2 -3 -5 7 -5 19 -1 20 5 6 34
-9 19 -9 19 -5 -2z"/>
<path d="M3652 1260 c0 -19 2 -27 5 -17 2 9 2 25 0 35 -3 9 -5 1 -5 -18z"/>
<path d="M3852 1265 c0 -16 2 -22 5 -12 2 9 2 23 0 30 -3 6 -5 -1 -5 -18z"/>
<path d="M3970 1275 c0 -8 5 -15 10 -15 6 0 10 7 10 15 0 8 -4 15 -10 15 -5 0
-10 -7 -10 -15z"/>
<path d="M4060 1280 c0 -13 12 -19 26 -13 21 8 17 22 -6 20 -11 -1 -20 -4 -20
-7z"/>
<path d="M4165 1270 c3 -5 8 -10 11 -10 2 0 4 5 4 10 0 6 -5 10 -11 10 -5 0
-7 -4 -4 -10z"/>
<path d="M4221 1264 c0 -11 3 -14 6 -6 3 7 2 16 -1 19 -3 4 -6 -2 -5 -13z"/>
<path d="M3222 1250 c0 -14 2 -19 5 -12 2 6 2 18 0 25 -3 6 -5 1 -5 -13z"/>
<path d="M3321 1244 c0 -11 3 -14 6 -6 3 7 2 16 -1 19 -3 4 -6 -2 -5 -13z"/>
<path d="M4200 1251 c0 -10 19 -25 25 -20 1 2 -3 10 -11 17 -8 7 -14 8 -14 3z"/>
<path d="M4240 1251 c0 -6 4 -13 10 -16 6 -3 7 1 4 9 -7 18 -14 21 -14 7z"/>
<path d="M3010 1240 c-9 -6 -10 -10 -3 -10 6 0 15 5 18 10 8 12 4 12 -15 0z"/>
<path d="M2925 1179 c-11 -16 -1 -19 13 -3 7 8 8 14 3 14 -5 0 -13 -5 -16 -11z"/>
<path d="M3014 1179 c-3 -6 1 -17 10 -25 9 -8 11 -9 6 -2 -14 16 -13 31 2 22
7 -4 8 -3 4 4 -9 15 -13 15 -22 1z"/>
<path d="M3344 1179 c-3 -6 1 -17 10 -25 9 -8 11 -9 6 -2 -14 16 -13 31 2 22
7 -4 8 -3 4 4 -9 15 -13 15 -22 1z"/>
<path d="M3930 1155 c0 -19 2 -35 4 -35 2 0 6 16 8 35 2 19 0 35 -4 35 -4 0
-8 -16 -8 -35z"/>
<path d="M3250 1175 c0 -4 9 -18 20 -32 11 -14 20 -22 20 -18 0 4 -9 18 -20
32 -11 14 -20 22 -20 18z"/>
<path d="M3307 1159 c4 -13 8 -18 11 -10 2 7 -1 18 -6 23 -8 8 -9 4 -5 -13z"/>
<path d="M3471 1149 c0 -19 3 -27 6 -19 4 8 13 20 22 27 9 6 13 15 8 19 -4 4
-7 2 -7 -6 0 -10 -3 -10 -15 0 -13 11 -15 8 -14 -21z"/>
<path d="M3580 1166 c0 -9 5 -16 10 -16 6 0 10 4 10 9 0 6 -4 13 -10 16 -5 3
-10 -1 -10 -9z"/>
<path d="M3621 1170 c0 -8 6 -24 14 -34 13 -17 15 -18 15 -3 0 9 -4 17 -9 17
-5 0 -12 8 -14 18 -3 12 -5 13 -6 2z"/>
<path d="M3761 1152 c-1 -28 1 -31 13 -20 8 7 10 15 6 18 -4 3 -10 12 -13 20
-3 8 -6 0 -6 -18z"/>
<path d="M3856 1154 c-4 -14 -5 -28 -3 -31 3 -2 8 8 11 23 4 14 5 28 3 31 -3
2 -8 -8 -11 -23z"/>
<path d="M3892 1150 c0 -19 2 -27 5 -17 2 9 2 25 0 35 -3 9 -5 1 -5 -18z"/>
<path d="M3992 1150 c0 -19 2 -27 5 -17 2 9 2 25 0 35 -3 9 -5 1 -5 -18z"/>
<path d="M2852 1140 c0 -14 2 -19 5 -12 2 6 2 18 0 25 -3 6 -5 1 -5 -13z"/>
<path d="M2970 1150 c0 -5 5 -10 11 -10 5 0 7 5 4 10 -3 6 -8 10 -11 10 -2 0
-4 -4 -4 -10z"/>
<path d="M3102 1140 c0 -14 2 -19 5 -12 2 6 2 18 0 25 -3 6 -5 1 -5 -13z"/>
<path d="M3127 1139 c4 -13 8 -18 11 -10 2 7 -1 18 -6 23 -8 8 -9 4 -5 -13z"/>
<path d="M3160 1142 c0 -11 4 -23 8 -26 10 -6 9 30 -1 40 -4 4 -7 -2 -7 -14z"/>
<path d="M3720 768 c0 -23 3 -29 9 -19 8 12 4 51 -5 51 -2 0 -4 -15 -4 -32z"/>
<path d="M4070 786 c0 -9 8 -16 20 -16 13 0 20 6 19 18 0 11 -2 12 -6 4 -4
-10 -8 -10 -19 -1 -11 9 -14 8 -14 -5z"/>
<path d="M4310 793 c0 -6 8 -17 18 -24 16 -13 16 -13 2 6 -8 11 -16 22 -17 24
-2 2 -3 0 -3 -6z"/>
<path d="M3780 781 c0 -7 -4 -9 -10 -6 -5 3 -10 1 -10 -4 0 -6 4 -11 9 -11 13
0 25 20 17 27 -3 4 -6 1 -6 -6z"/>
<path d="M4051 767 c-1 -19 -5 -26 -13 -21 -7 5 -8 3 -3 -5 11 -19 27 3 22 30
-4 22 -4 21 -6 -4z"/>
<path d="M3980 770 c0 -6 7 -10 15 -10 8 0 15 2 15 4 0 2 -7 6 -15 10 -8 3
-15 1 -15 -4z"/>
<path d="M3850 750 c0 -11 2 -20 4 -20 2 0 6 9 9 20 3 11 1 20 -4 20 -5 0 -9
-9 -9 -20z"/>
<path d="M4291 754 c0 -11 3 -14 6 -6 3 7 2 16 -1 19 -3 4 -6 -2 -5 -13z"/>
<path d="M4192 744 c-7 -8 -8 -14 -3 -14 10 0 25 19 20 25 -2 1 -10 -3 -17
-11z"/>
<path d="M4221 753 c-1 -17 16 -25 25 -12 4 7 3 9 -4 5 -5 -3 -13 0 -15 6 -4
9 -6 10 -6 1z"/>
<path d="M551 718 c-1 -30 3 -38 17 -38 11 0 13 3 5 8 -6 4 -13 21 -16 37 -4
27 -4 27 -6 -7z"/>
<path d="M644 736 c-3 -8 -4 -23 -2 -32 3 -20 28 -32 28 -14 0 6 -4 8 -10 5
-6 -3 -10 5 -10 19 0 13 6 27 13 29 9 4 9 6 -1 6 -7 1 -15 -5 -18 -13z"/>
<path d="M732 718 c-2 -28 2 -38 13 -38 8 0 15 5 15 11 0 5 -4 8 -9 4 -5 -3
-12 9 -14 27 -4 33 -4 33 -5 -4z"/>
<path d="M889 718 c-3 -22 -1 -34 4 -29 5 5 7 21 5 37 -3 27 -4 26 -9 -8z"/>
<path d="M916 741 c-3 -5 2 -15 12 -22 15 -13 16 -12 4 3 -10 13 -10 17 0 21
9 4 9 6 1 6 -6 1 -14 -3 -17 -8z"/>
<path d="M1091 737 c0 -10 6 -25 14 -33 13 -14 15 -14 15 0 0 9 -4 16 -9 16
-5 0 -12 8 -14 18 -4 16 -5 16 -6 -1z"/>
<path d="M1361 718 c-1 -30 3 -38 17 -38 13 0 14 2 3 9 -7 5 -11 13 -9 17 3 5
2 18 -3 29 -6 16 -8 12 -8 -17z"/>
<path d="M1420 741 c13 -10 13 -12 0 -22 -13 -9 -13 -10 0 -6 8 2 15 10 15 17
0 7 -7 15 -15 17 -13 4 -13 3 0 -6z"/>
<path d="M1997 743 c-4 -3 -7 -19 -7 -35 0 -24 2 -27 14 -16 9 8 10 15 3 19
-5 4 -7 14 -4 23 7 17 5 20 -6 9z"/>
<path d="M2047 743 c-4 -3 -7 -22 -7 -41 0 -45 10 -36 13 12 4 39 4 39 -6 29z"/>
<path d="M2636 742 c-3 -5 1 -9 9 -9 8 0 12 4 9 9 -3 4 -7 8 -9 8 -2 0 -6 -4
-9 -8z"/>
<path d="M472 724 c-7 -8 -8 -14 -3 -14 10 0 25 19 20 25 -2 1 -10 -3 -17 -11z"/>
<path d="M1054 715 c1 -33 16 -33 16 0 0 14 -4 25 -9 25 -5 0 -8 -11 -7 -25z"/>
<path d="M1161 718 c0 -14 -7 -29 -13 -31 -10 -4 -10 -6 0 -6 16 -1 25 22 19
46 -3 12 -5 9 -6 -9z"/>
<path d="M2112 710 c0 -19 2 -27 5 -17 2 9 2 25 0 35 -3 9 -5 1 -5 -18z"/>
<path d="M2223 705 c0 -22 2 -30 4 -17 2 12 2 30 0 40 -3 9 -5 -1 -4 -23z"/>
<path d="M2361 734 c-1 -6 2 -13 5 -17 8 -8 34 3 34 15 0 6 -6 6 -14 -1 -11
-9 -15 -9 -19 1 -3 7 -6 8 -6 2z"/>
<path d="M2822 710 c0 -19 2 -27 5 -17 2 9 2 25 0 35 -3 9 -5 1 -5 -18z"/>
<path d="M1313 706 c-1 -12 1 -15 4 -8 7 18 21 15 26 -5 4 -14 5 -14 6 3 1 13
-6 24 -17 26 -13 4 -18 -1 -19 -16z"/>
<path d="M2274 711 c20 -22 26 -25 26 -13 0 4 -10 13 -22 21 -23 14 -23 14 -4
-8z"/>
<path d="M2522 705 c0 -16 2 -22 5 -12 2 9 2 23 0 30 -3 6 -5 -1 -5 -18z"/>
<path d="M2951 723 c0 -7 -6 -12 -13 -10 -6 1 -13 -7 -15 -18 -3 -15 -2 -17 5
-6 8 11 10 11 14 0 8 -22 20 -3 15 23 -2 12 -5 17 -6 11z"/>
<path d="M2630 713 c0 -3 7 -11 15 -19 13 -14 15 -13 15 4 0 10 -7 19 -15 19
-8 0 -15 -2 -15 -4z"/>
<path d="M2671 704 c0 -11 3 -14 6 -6 3 7 2 16 -1 19 -3 4 -6 -2 -5 -13z"/>
<path d="M2738 713 c-25 -6 -23 -29 2 -29 13 0 20 7 20 18 0 10 -1 17 -2 17
-2 -1 -11 -3 -20 -6z"/>
<path d="M2970 710 c0 -5 5 -10 11 -10 5 0 7 5 4 10 -3 6 -8 10 -11 10 -2 0
-4 -4 -4 -10z"/>
<path d="M3002 700 c0 -14 2 -19 5 -12 2 6 2 18 0 25 -3 6 -5 1 -5 -13z"/>
<path d="M3090 708 c0 -4 7 -8 15 -8 8 0 15 4 15 8 0 5 -7 9 -15 9 -8 0 -15
-4 -15 -9z"/>
<path d="M3495 709 c-41 -11 -91 -62 -106 -106 -15 -46 -6 -118 18 -152 69
-92 191 -104 266 -26 129 132 1 336 -178 284z m115 -103 c0 -7 -7 -30 -15 -50
-9 -20 -13 -41 -10 -46 4 -6 2 -10 -3 -10 -5 0 -12 -9 -15 -20 -7 -25 -27 -26
-27 -1 0 11 -9 21 -21 24 -20 5 -18 10 27 61 49 57 64 67 64 42z"/>
<path d="M3545 539 c-4 -6 -5 -12 -2 -15 2 -3 7 2 10 11 7 17 1 20 -8 4z"/>
<path d="M1705 697 c-95 -37 -139 -117 -115 -206 33 -122 177 -169 275 -89
110 91 74 260 -63 298 -45 12 -59 12 -97 -3z m103 -101 c2 -2 -5 -17 -14 -32
-10 -15 -17 -39 -16 -54 5 -43 -33 -72 -66 -51 -16 9 -12 58 3 52 6 -2 9 -12
7 -23 -2 -10 1 -18 7 -18 13 0 24 37 16 51 -4 6 2 17 14 25 28 20 27 34 -4 34
-25 0 -32 10 -18 24 7 7 62 1 71 -8z"/>
<path d="M2134 692 c2 -21 21 -19 23 3 l3 20 -9 -20 c-6 -16 -9 -17 -13 -5 -3
8 -4 9 -4 2z"/>
<path d="M2611 694 c0 -11 3 -14 6 -6 3 7 2 16 -1 19 -3 4 -6 -2 -5 -13z"/>
<path d="M930 690 c-9 -6 -10 -10 -3 -10 6 0 15 5 18 10 8 12 4 12 -15 0z"/>
<path d="M1240 690 c-9 -6 -10 -10 -3 -10 6 0 15 5 18 10 8 12 4 12 -15 0z"/>
<path d="M2696 683 c-6 -14 -5 -15 5 -6 7 7 10 15 7 18 -3 3 -9 -2 -12 -12z"/>
<path d="M3861 674 c0 -11 3 -14 6 -6 3 7 2 16 -1 19 -3 4 -6 -2 -5 -13z"/>
<path d="M4000 680 c0 -6 5 -8 11 -4 8 5 10 -3 7 -25 -3 -19 -1 -28 5 -22 12
12 5 53 -10 59 -7 2 -13 -1 -13 -8z"/>
<path d="M4112 660 c0 -19 2 -27 5 -17 2 9 2 25 0 35 -3 9 -5 1 -5 -18z"/>
<path d="M4270 658 c0 -17 1 -29 3 -27 1 2 9 13 17 23 10 13 10 17 3 12 -7 -4
-13 -3 -13 3 0 5 6 12 13 14 7 3 5 6 -5 6 -14 1 -18 -7 -18 -31z"/>
<path d="M194 662 c-99 -62 -118 -181 -43 -267 37 -41 86 -59 149 -53 149 15
204 213 85 304 -50 38 -144 45 -191 16z m124 -74 c22 -22 13 -59 -22 -94 -20
-20 -28 -33 -19 -32 9 2 18 -3 21 -10 3 -10 -6 -13 -34 -10 -45 4 -54 20 -20
37 28 16 61 72 53 92 -3 9 -9 2 -17 -18 -14 -39 -30 -43 -30 -9 0 14 10 32 22
40 27 19 31 19 46 4z"/>
<path d="M3820 668 c0 -7 4 -19 9 -27 6 -9 9 -5 9 13 0 14 -4 26 -9 26 -5 0
-9 -6 -9 -12z"/>
<path d="M3929 652 c-3 -20 -2 -29 4 -23 5 5 7 19 5 32 -3 20 -5 19 -9 -9z"/>
<path d="M4193 665 c-7 -8 -13 -16 -13 -19 0 -2 6 -6 13 -9 7 -3 13 5 13 19 1
13 1 24 0 24 0 -1 -7 -7 -13 -15z"/>
<path d="M4366 667 c3 -10 9 -15 12 -12 3 3 0 11 -7 18 -10 9 -11 8 -5 -6z"/>
<path d="M4134 647 c1 -11 8 -22 16 -24 13 -4 13 -3 0 6 -12 9 -13 13 -2 20
11 7 11 9 -1 14 -10 4 -14 -1 -13 -16z"/>
<path d="M4460 657 c12 -16 12 -20 -1 -28 -9 -5 -10 -9 -2 -9 22 0 26 22 7 38
-17 16 -17 16 -4 -1z"/>
<path d="M3881 644 c0 -11 3 -14 6 -6 3 7 2 16 -1 19 -3 4 -6 -2 -5 -13z"/>
<path d="M582 600 c0 -19 2 -27 5 -17 2 9 2 25 0 35 -3 9 -5 1 -5 -18z"/>
<path d="M651 618 c-1 -10 -5 -18 -11 -18 -5 0 -10 -5 -10 -12 0 -8 6 -7 16 4
9 9 14 22 11 30 -4 9 -6 7 -6 -4z"/>
<path d="M712 605 c0 -16 2 -22 5 -12 2 9 2 23 0 30 -3 6 -5 -1 -5 -18z"/>
<path d="M751 618 c-1 -9 -4 -25 -7 -35 -5 -15 -4 -15 5 -3 9 12 11 13 11 1 0
-8 2 -12 5 -10 2 3 0 18 -4 35 -5 16 -10 21 -10 12z"/>
<path d="M822 600 c0 -19 2 -27 5 -17 2 9 2 25 0 35 -3 9 -5 1 -5 -18z"/>
<path d="M840 612 c0 -13 4 -20 10 -17 6 3 10 -1 10 -9 0 -9 5 -16 10 -16 11
0 5 14 -20 50 -8 12 -10 11 -10 -8z"/>
<path d="M989 615 c0 -11 -2 -28 -4 -37 -2 -11 2 -15 11 -11 16 6 18 31 4 53
-8 12 -10 12 -11 -5z"/>
<path d="M1023 595 c0 -22 2 -30 4 -17 2 12 2 30 0 40 -3 9 -5 -1 -4 -23z"/>
<path d="M1195 620 c-3 -6 1 -7 9 -4 18 7 21 14 7 14 -6 0 -13 -4 -16 -10z"/>
<path d="M1280 617 c0 -8 9 -22 20 -32 19 -17 20 -17 20 -1 0 9 -4 14 -10 11
-5 -3 -10 1 -10 9 0 8 -4 18 -10 21 -5 3 -10 0 -10 -8z"/>
<path d="M2092 603 c-2 -34 12 -51 24 -32 4 7 3 9 -4 5 -7 -4 -12 6 -15 26
l-4 33 -1 -32z"/>
<path d="M2139 614 c0 -10 -2 -27 -4 -36 -2 -11 2 -15 11 -11 9 3 12 15 9 30
-5 32 -15 42 -16 17z"/>
<path d="M2482 618 c-14 -14 -16 -42 -3 -34 7 5 23 46 17 46 -1 0 -7 -5 -14
-12z"/>
<path d="M2590 615 c0 -8 -7 -15 -15 -15 -8 0 -15 -8 -15 -17 0 -15 2 -16 10
-3 9 13 11 13 20 0 7 -11 10 -7 10 18 0 17 -2 32 -5 32 -3 0 -5 -7 -5 -15z"/>
<path d="M2621 618 c-1 -9 -4 -25 -7 -35 -5 -15 -4 -15 5 -3 9 13 11 12 11 -4
0 -11 3 -17 6 -14 3 3 1 21 -5 39 -5 19 -10 26 -10 17z"/>
<path d="M2825 621 c-3 -6 0 -8 9 -5 8 3 16 -1 19 -10 4 -14 5 -14 3 0 -1 20
-21 30 -31 15z"/>
<path d="M2870 617 c0 -9 5 -17 10 -17 6 0 10 -8 11 -17 0 -13 3 -11 10 6 5
13 7 26 4 29 -3 3 -5 -1 -5 -9 -1 -10 -5 -8 -15 5 -13 17 -15 18 -15 3z"/>
<path d="M2990 616 c0 -8 -4 -16 -9 -18 -5 -1 -3 -9 5 -16 12 -11 14 -8 14 18
0 16 -2 30 -5 30 -3 0 -5 -6 -5 -14z"/>
<path d="M3143 595 c0 -22 2 -30 4 -17 2 12 2 30 0 40 -3 9 -5 -1 -4 -23z"/>
<path d="M3172 595 c0 -22 2 -32 5 -22 2 9 10 17 16 17 9 0 9 2 1 8 -6 4 -14
14 -17 22 -3 8 -5 -3 -5 -25z"/>
<path d="M1162 604 c-7 -8 -8 -14 -3 -14 10 0 25 19 20 25 -2 1 -10 -3 -17
-11z"/>
<path d="M2176 605 c4 -8 8 -15 10 -15 2 0 4 7 4 15 0 8 -4 15 -10 15 -5 0 -7
-7 -4 -15z"/>
<path d="M2271 596 c-1 -20 3 -27 13 -23 8 3 17 1 20 -6 2 -7 5 -2 5 11 1 13
-5 22 -13 22 -8 0 -17 6 -19 13 -3 6 -6 -1 -6 -17z"/>
<path d="M2421 604 c0 -11 3 -14 6 -6 3 7 2 16 -1 19 -3 4 -6 -2 -5 -13z"/>
<path d="M2711 598 c0 -14 -7 -29 -13 -31 -10 -4 -10 -6 0 -6 16 -1 25 22 19
46 -3 12 -5 9 -6 -9z"/>
<path d="M2730 596 c0 -14 4 -27 8 -30 5 -3 6 8 4 25 -5 35 -12 38 -12 5z"/>
<path d="M3066 611 c-4 -7 -5 -15 -2 -18 9 -9 19 4 14 18 -4 11 -6 11 -12 0z"/>
<path d="M910 584 c0 -16 -2 -17 -10 -4 -6 9 -10 10 -10 3 0 -19 20 -26 26 -8
4 9 4 19 0 22 -3 4 -6 -2 -6 -13z"/>
<path d="M1100 589 c0 -5 5 -7 10 -4 6 3 10 8 10 11 0 2 -4 4 -10 4 -5 0 -10
-5 -10 -11z"/>
<path d="M1240 580 c0 -11 4 -20 9 -20 5 0 7 9 4 20 -3 11 -7 20 -9 20 -2 0
-4 -9 -4 -20z"/>
<path d="M2201 584 c0 -11 3 -14 6 -6 3 7 2 16 -1 19 -3 4 -6 -2 -5 -13z"/>
<path d="M2336 593 c5 -5 12 -12 16 -18 4 -6 8 -2 8 8 0 9 -7 17 -17 17 -9 0
-12 -3 -7 -7z"/>
<path d="M2654 589 c-3 -6 -2 -15 3 -20 5 -5 9 -1 10 11 2 22 -2 25 -13 9z"/>
<path d="M3015 589 c-11 -16 -1 -19 13 -3 7 8 8 14 3 14 -5 0 -13 -5 -16 -11z"/>
<path d="M1067 569 c7 -7 15 -10 18 -7 3 3 -2 9 -12 12 -14 6 -15 5 -6 -5z"/>
<path d="M2830 566 c7 -7 13 -7 20 0 6 6 3 10 -10 10 -13 0 -16 -4 -10 -10z"/>
<path d="M3068 573 c7 -3 16 -2 19 1 4 3 -2 6 -13 5 -11 0 -14 -3 -6 -6z"/>
<path d="M3907 573 c-13 -12 -7 -43 8 -43 8 0 15 5 15 11 0 5 -4 7 -10 4 -5
-3 -10 0 -10 9 0 8 6 17 13 19 6 3 7 6 1 6 -6 1 -14 -2 -17 -6z"/>
<path d="M3956 573 c6 -4 14 -15 17 -23 5 -11 6 -9 4 4 -1 11 -9 21 -17 23
-10 3 -11 2 -4 -4z"/>
<path d="M3991 545 c1 -30 3 -34 7 -17 4 13 11 23 17 22 5 -1 11 4 13 12 3 10
1 10 -6 -1 -8 -11 -12 -10 -21 5 -9 16 -10 12 -10 -21z"/>
<path d="M4261 544 c1 -21 3 -31 6 -21 5 18 5 18 19 0 11 -13 10 -8 -2 17 -23
48 -24 49 -23 4z"/>
<path d="M4314 566 c-3 -8 -4 -23 -2 -33 3 -11 6 -6 9 15 6 34 2 42 -7 18z"/>
<path d="M4408 573 c7 -3 16 -2 19 1 4 3 -2 6 -13 5 -11 0 -14 -3 -6 -6z"/>
<path d="M4090 561 c0 -16 28 -20 40 -5 8 9 9 14 2 14 -6 0 -13 -6 -15 -12 -4
-10 -6 -10 -6 0 -1 14 -21 17 -21 3z"/>
<path d="M4156 561 c-4 -7 -5 -15 -2 -18 9 -9 19 4 14 18 -4 11 -6 11 -12 0z"/>
<path d="M4191 533 c0 -16 3 -22 6 -15 2 6 9 9 15 6 6 -4 5 2 -1 15 -16 28
-21 26 -20 -6z"/>
<path d="M4495 540 c3 -5 8 -10 11 -10 2 0 4 5 4 10 0 6 -5 10 -11 10 -5 0 -7
-4 -4 -10z"/>
<path d="M4091 524 c0 -11 3 -14 6 -6 3 7 2 16 -1 19 -3 4 -6 -2 -5 -13z"/>
<path d="M3960 520 c-9 -6 -10 -10 -3 -10 6 0 15 5 18 10 8 12 4 12 -15 0z"/>
<path d="M4158 523 c7 -3 16 -2 19 1 4 3 -2 6 -13 5 -11 0 -14 -3 -6 -6z"/>
<path d="M560 509 c0 -5 5 -7 10 -4 6 3 10 8 10 11 0 2 -4 4 -10 4 -5 0 -10
-5 -10 -11z"/>
<path d="M654 498 c1 -15 -2 -29 -8 -31 -6 -2 -9 -7 -6 -10 3 -3 12 -2 19 2
11 7 11 15 2 37 l-11 29 4 -27z"/>
<path d="M685 510 c4 -6 11 -8 16 -5 14 9 11 15 -7 15 -8 0 -12 -5 -9 -10z"/>
<path d="M773 505 c-3 -9 -3 -19 1 -22 3 -4 6 1 6 11 0 10 5 14 12 10 7 -4 8
-3 4 4 -10 16 -15 15 -23 -3z"/>
<path d="M1044 506 c-3 -8 -4 -23 -1 -33 3 -12 5 -9 6 9 0 14 7 29 14 31 9 4
9 6 -1 6 -7 1 -15 -5 -18 -13z"/>
<path d="M1090 516 c0 -2 7 -7 16 -10 8 -3 12 -2 9 4 -6 10 -25 14 -25 6z"/>
<path d="M2044 506 c-3 -8 -4 -23 -1 -33 3 -12 5 -8 6 10 0 16 5 26 11 22 6
-3 10 -1 10 4 0 16 -20 13 -26 -3z"/>
<path d="M2090 503 c0 -13 5 -23 10 -23 13 0 13 11 0 30 -8 12 -10 11 -10 -7z"/>
<path d="M2174 509 c-3 -6 2 -18 12 -27 17 -16 17 -16 4 1 -12 16 -12 20 1 28
9 5 10 9 2 9 -6 0 -15 -5 -19 -11z"/>
<path d="M2444 506 c-3 -8 -4 -23 -1 -33 3 -12 5 -9 6 9 0 14 7 29 14 31 9 4
9 6 -1 6 -7 1 -15 -5 -18 -13z"/>
<path d="M2496 505 c4 -8 8 -15 10 -15 2 0 4 7 4 15 0 8 -4 15 -10 15 -5 0 -7
-7 -4 -15z"/>
<path d="M2601 503 c0 -13 3 -23 8 -23 5 0 12 -8 14 -17 4 -14 5 -12 6 5 0 12
-3 22 -8 22 -5 0 -12 8 -14 18 -4 13 -5 11 -6 -5z"/>
<path d="M2650 516 c0 -2 7 -7 16 -10 8 -3 12 -2 9 4 -6 10 -25 14 -25 6z"/>
<path d="M2834 506 c-3 -8 -4 -25 -1 -38 3 -17 5 -15 6 10 0 19 5 31 11 27 6
-3 10 -1 10 4 0 16 -20 13 -26 -3z"/>
<path d="M2980 508 c0 -7 -3 -22 -6 -34 -4 -14 -1 -21 10 -21 9 0 16 4 16 9 0
4 -4 8 -9 8 -4 0 -6 11 -3 25 2 14 2 25 -2 25 -3 0 -6 -6 -6 -12z"/>
<path d="M3016 511 c-3 -5 1 -22 9 -37 9 -19 15 -23 15 -12 0 9 -4 20 -10 23
-5 3 -10 11 -10 16 0 6 5 7 12 3 7 -4 8 -3 4 4 -9 14 -13 15 -20 3z"/>
<path d="M820 496 c0 -9 5 -16 10 -16 6 0 10 4 10 9 0 6 -4 13 -10 16 -5 3
-10 -1 -10 -9z"/>
<path d="M2151 494 c0 -11 3 -14 6 -6 3 7 2 16 -1 19 -3 4 -6 -2 -5 -13z"/>
<path d="M2409 498 c0 -7 -2 -21 -4 -30 -2 -12 2 -15 13 -10 9 3 11 7 5 9 -6
2 -9 13 -6 23 3 11 3 20 -1 20 -3 0 -6 -6 -7 -12z"/>
<path d="M2532 480 c0 -19 2 -27 5 -17 2 9 2 25 0 35 -3 9 -5 1 -5 -18z"/>
<path d="M2902 480 c0 -19 2 -27 5 -17 2 9 2 25 0 35 -3 9 -5 1 -5 -18z"/>
<path d="M900 496 c0 -2 8 -10 18 -17 15 -13 16 -12 3 4 -13 16 -21 21 -21 13z"/>
<path d="M2581 484 c0 -11 3 -14 6 -6 3 7 2 16 -1 19 -3 4 -6 -2 -5 -13z"/>
<path d="M2650 496 c0 -2 8 -10 18 -17 15 -13 16 -12 3 4 -13 16 -21 21 -21
13z"/>
<path d="M2740 496 c0 -2 8 -10 18 -17 15 -13 16 -12 3 4 -13 16 -21 21 -21
13z"/>
<path d="M2310 478 c0 -4 7 -8 15 -8 8 0 15 4 15 8 0 5 -7 9 -15 9 -8 0 -15
-4 -15 -9z"/>
<path d="M3870 448 c0 -7 -3 -23 -6 -36 -5 -18 -3 -21 12 -15 10 4 13 8 7 10
-5 2 -8 15 -5 28 2 14 2 25 -2 25 -3 0 -6 -6 -6 -12z"/>
<path d="M3900 452 c0 -8 9 -25 20 -39 l20 -26 -1 34 c0 19 -3 28 -6 21 -4
-10 -8 -9 -19 5 -9 12 -13 14 -14 5z"/>
<path d="M3960 425 c0 -19 2 -35 4 -35 2 0 6 16 8 35 2 19 0 35 -4 35 -4 0 -8
-16 -8 -35z"/>
<path d="M4040 425 c0 -19 2 -35 4 -35 2 0 6 16 8 35 2 19 0 35 -4 35 -4 0 -8
-16 -8 -35z"/>
<path d="M4190 449 c0 -5 5 -7 10 -4 6 3 10 8 10 11 0 2 -4 4 -10 4 -5 0 -10
-5 -10 -11z"/>
<path d="M4270 425 c0 -19 2 -35 4 -35 2 0 6 16 8 35 2 19 0 35 -4 35 -4 0 -8
-16 -8 -35z"/>
<path d="M4342 426 c1 -26 4 -31 13 -22 9 7 9 13 2 17 -5 4 -7 14 -4 23 4 9 2
16 -3 16 -5 0 -9 -15 -8 -34z"/>
<path d="M4089 433 c27 -47 31 -49 30 -13 0 29 -2 31 -9 15 -7 -17 -9 -17 -9
-2 -1 9 -6 17 -11 17 -7 0 -7 -6 -1 -17z"/>
<path d="M4252 430 c0 -14 2 -19 5 -12 2 6 2 18 0 25 -3 6 -5 1 -5 -13z"/>
<path d="M4222 410 c0 -14 2 -19 5 -12 2 6 2 18 0 25 -3 6 -5 1 -5 -13z"/>
<path d="M693 375 c0 -22 2 -30 4 -17 2 12 2 30 0 40 -3 9 -5 -1 -4 -23z"/>
<path d="M1194 399 c-4 -7 -3 -9 4 -5 6 3 13 -2 15 -11 4 -16 5 -16 6 -1 1 21
-15 32 -25 17z"/>
<path d="M510 383 c0 -10 5 -25 10 -33 8 -12 10 -9 10 12 0 15 -4 30 -10 33
-5 3 -10 -2 -10 -12z"/>
<path d="M551 390 c0 -8 6 -24 14 -34 14 -19 15 -18 14 15 0 27 -2 30 -8 14
l-8 -20 -5 20 c-3 11 -6 13 -7 5z"/>
<path d="M1100 393 c0 -6 8 -17 18 -24 16 -13 16 -13 2 6 -8 11 -16 22 -17 24
-2 2 -3 0 -3 -6z"/>
<path d="M1320 388 c0 -10 6 -18 14 -18 8 0 17 -8 19 -17 3 -10 5 -2 6 17 0
26 -2 31 -9 20 -9 -13 -11 -13 -20 0 -8 13 -10 12 -10 -2z"/>
<path d="M1370 393 c0 -6 7 -16 15 -23 9 -7 13 -20 10 -29 -5 -12 -3 -13 6 -4
9 9 7 18 -10 39 -11 15 -21 22 -21 17z"/>
<path d="M1994 386 c-9 -23 -1 -49 16 -53 12 -4 13 -3 1 5 -8 6 -12 20 -9 36
6 28 1 35 -8 12z"/>
<path d="M2052 386 c7 -8 15 -12 17 -11 5 6 -10 25 -20 25 -5 0 -4 -6 3 -14z"/>
<path d="M2124 386 c-3 -8 -4 -25 -1 -38 3 -18 5 -16 6 9 0 17 7 34 14 36 9 4
9 6 -1 6 -7 1 -15 -5 -18 -13z"/>
<path d="M2402 375 c0 -16 2 -22 5 -12 2 9 2 23 0 30 -3 6 -5 -1 -5 -18z"/>
<path d="M2814 389 c-3 -6 4 -21 17 -33 l23 -21 -18 22 c-10 12 -15 27 -11 32
3 6 4 11 1 11 -3 0 -8 -5 -12 -11z"/>
<path d="M2900 389 c0 -9 3 -18 6 -22 10 -10 34 5 34 22 0 14 -2 14 -10 1 -9
-13 -11 -13 -20 0 -8 13 -10 13 -10 -1z"/>
<path d="M2955 390 c-3 -6 1 -7 9 -4 18 7 21 14 7 14 -6 0 -13 -4 -16 -10z"/>
<path d="M3006 385 c4 -8 7 -15 9 -15 2 0 5 7 9 15 3 9 0 15 -9 15 -9 0 -12
-6 -9 -15z"/>
<path d="M3046 393 c-9 -10 -7 -51 3 -58 5 -3 13 0 17 6 4 8 3 9 -4 5 -8 -5
-12 2 -12 21 0 22 2 25 10 13 6 -9 10 -10 10 -3 0 15 -15 25 -24 16z"/>
<path d="M3080 387 c0 -8 6 -17 14 -20 15 -6 26 1 26 16 0 6 -3 7 -7 4 -3 -4
-12 -2 -20 4 -10 9 -13 8 -13 -4z"/>
<path d="M622 365 c0 -16 2 -22 5 -12 2 9 2 23 0 30 -3 6 -5 -1 -5 -18z"/>
<path d="M960 372 c0 -10 7 -19 14 -19 11 0 13 5 5 19 -5 10 -12 18 -14 18 -3
0 -5 -8 -5 -18z"/>
<path d="M1150 380 c0 -5 5 -10 10 -10 6 0 10 5 10 10 0 6 -4 10 -10 10 -5 0
-10 -4 -10 -10z"/>
<path d="M1302 370 c0 -14 2 -19 5 -12 2 6 2 18 0 25 -3 6 -5 1 -5 -13z"/>
<path d="M2220 376 c0 -9 5 -16 10 -16 6 0 10 4 10 9 0 6 -4 13 -10 16 -5 3
-10 -1 -10 -9z"/>
<path d="M2261 374 c0 -11 3 -14 6 -6 3 7 2 16 -1 19 -3 4 -6 -2 -5 -13z"/>
<path d="M2670 363 c0 -21 3 -24 9 -14 5 8 7 20 4 28 -8 21 -13 15 -13 -14z"/>
<path d="M2860 374 c0 -8 5 -12 10 -9 6 4 8 11 5 16 -9 14 -15 11 -15 -7z"/>
<path d="M3151 363 c7 -12 15 -20 18 -17 3 2 -3 12 -13 22 -17 16 -18 16 -5
-5z"/>
<path d="M2951 354 c0 -11 3 -14 6 -6 3 7 2 16 -1 19 -3 4 -6 -2 -5 -13z"/>
<path d="M790 351 c0 -7 -5 -9 -12 -5 -7 5 -8 3 -3 -5 5 -9 10 -10 18 -2 6 6
8 14 4 18 -4 3 -7 1 -7 -6z"/>
<path d="M2081 344 c0 -11 3 -14 6 -6 3 7 2 16 -1 19 -3 4 -6 -2 -5 -13z"/>
<path d="M2281 344 c0 -11 3 -14 6 -6 3 7 2 16 -1 19 -3 4 -6 -2 -5 -13z"/>
<path d="M2601 344 c0 -11 3 -14 6 -6 3 7 2 16 -1 19 -3 4 -6 -2 -5 -13z"/>
<path d="M2931 344 c0 -11 3 -14 6 -6 3 7 2 16 -1 19 -3 4 -6 -2 -5 -13z"/>
<path d="M3011 344 c0 -11 3 -14 6 -6 3 7 2 16 -1 19 -3 4 -6 -2 -5 -13z"/>
<path d="M3081 344 c0 -11 3 -14 6 -6 3 7 2 16 -1 19 -3 4 -6 -2 -5 -13z"/>
<path d="M730 340 c0 -5 5 -10 11 -10 5 0 7 5 4 10 -3 6 -8 10 -11 10 -2 0 -4
-4 -4 -10z"/>
<path d="M3727 343 c-4 -3 -7 -20 -7 -36 0 -39 11 -28 14 12 2 34 2 34 -7 24z"/>
<path d="M3816 338 c3 -5 10 -6 15 -3 13 9 11 12 -6 12 -8 0 -12 -4 -9 -9z"/>
<path d="M4025 339 c-4 -6 -4 -13 -1 -16 3 -4 6 -1 6 6 0 7 5 9 12 5 7 -4 8
-3 4 4 -9 15 -13 15 -21 1z"/>
<path d="M2048 333 c7 -3 16 -2 19 1 4 3 -2 6 -13 5 -11 0 -14 -3 -6 -6z"/>
<path d="M3671 310 c0 -33 1 -34 10 -11 6 16 6 28 -1 35 -7 7 -10 -1 -9 -24z"/>
<path d="M3887 310 c10 -18 20 -25 22 -18 2 6 -1 14 -7 16 -7 2 -12 10 -12 18
0 8 -5 14 -11 14 -5 0 -2 -14 8 -30z"/>
<path d="M4201 330 c0 -8 6 -24 14 -34 13 -17 15 -18 15 -3 0 9 -4 17 -9 17
-5 0 -12 8 -14 18 -3 12 -5 13 -6 2z"/>
<path d="M3775 310 c10 -11 20 -20 23 -20 3 0 -3 9 -13 20 -10 11 -20 20 -23
20 -3 0 3 -9 13 -20z"/>
<path d="M4271 314 c0 -11 3 -14 6 -6 3 7 2 16 -1 19 -3 4 -6 -2 -5 -13z"/>
<path d="M4061 296 c0 -12 3 -15 6 -8 2 6 9 10 14 6 5 -3 9 1 9 9 0 7 -7 14
-15 14 -9 0 -15 -9 -14 -21z"/>
<path d="M3690 301 c0 -6 5 -13 10 -16 6 -3 10 1 10 9 0 9 -4 16 -10 16 -5 0
-10 -4 -10 -9z"/>
<path d="M3851 294 c0 -11 3 -14 6 -6 3 7 2 16 -1 19 -3 4 -6 -2 -5 -13z"/>
<path d="M3945 300 c3 -5 8 -10 11 -10 2 0 4 5 4 10 0 6 -5 10 -11 10 -5 0 -7
-4 -4 -10z"/>
<path d="M4041 294 c0 -11 3 -14 6 -6 3 7 2 16 -1 19 -3 4 -6 -2 -5 -13z"/>
</g>
</svg>
